<svg id="Calque_1" data-name="Calque 1" xmlns="http://www.w3.org/2000/svg" xmlns:xlink="http://www.w3.org/1999/xlink" viewBox="0 0 160 105"><defs><style>.cls-1{fill:none;}.cls-2{fill:#ccc;}.cls-3{fill:#e6e6e8;}.cls-4{fill:#ff7a7a;}.cls-5{fill:#f7f8fc;}.cls-6{clip-path:url(#clip-path);}.cls-7{fill:#ff8f8f;}.cls-8{fill:#b9b9b9;}.cls-9{fill:#d8d8da;}.cls-10{fill:#2b3a49;}.cls-11{fill:#242c3c;}.cls-12{fill:#fff;}.cls-13{fill:#f79331;}</style><clipPath id="clip-path"><path class="cls-1" d="M50.69,74.5A21.8,21.8,0,1,1,72.5,52.69,21.56,21.56,0,0,1,51.2,74.5Zm0-38A16.24,16.24,0,1,0,66.94,52.69,16,16,0,0,0,51.08,36.46Z"/></clipPath></defs><g id="Icon_help-coach" data-name="Icon help-coach"><rect id="Rectangle_438" data-name="Rectangle 438" class="cls-1" width="160" height="105"/><g id="Groupe_819" data-name="Groupe 819"><g id="Groupe_307" data-name="Groupe 307"><rect id="Rectangle_156" data-name="Rectangle 156" class="cls-2" x="48.03" y="26" width="5.56" height="4.01"/><rect id="Rectangle_157" data-name="Rectangle 157" class="cls-2" x="48.03" y="75.39" width="5.56" height="4.01"/><rect id="Rectangle_158" data-name="Rectangle 158" class="cls-2" x="73.39" y="50.03" width="4.01" height="5.56"/><rect id="Rectangle_159" data-name="Rectangle 159" class="cls-2" x="24" y="50.03" width="4.01" height="5.56"/><g id="Groupe_306" data-name="Groupe 306"><g id="Groupe_305" data-name="Groupe 305"><path id="Tracé_276" data-name="Tracé 276" class="cls-3" d="M50.7,76.73a23.79,23.79,0,1,1,.48,0Zm0-43.61A19.58,19.58,0,1,0,70.28,52.7h0A19.33,19.33,0,0,0,51.2,33.12Zm0,38.05a18.42,18.42,0,1,1,.1,0Zm0-32.49a14,14,0,1,0,.12,0Z"/><g id="Groupe_298" data-name="Groupe 298"><path id="Tracé_277" data-name="Tracé 277" class="cls-4" d="M41.13,30.67,43.36,36l1.78,3.78a13.2,13.2,0,0,1,11.57,0L58.49,36l2.22-5.34a23.24,23.24,0,0,0-9.79-2A23.24,23.24,0,0,0,41.13,30.67Z"/><path id="Tracé_278" data-name="Tracé 278" class="cls-4" d="M60.27,75,58,70.05l-1.78-4.22a14.51,14.51,0,0,1-11.13,0l-1.78,4.22L41.13,75a23.17,23.17,0,0,0,9.57,2A32,32,0,0,0,60.27,75Z"/><path id="Tracé_279" data-name="Tracé 279" class="cls-4" d="M38,58.48a12.34,12.34,0,0,1-1.34-5.78,13.41,13.41,0,0,1,1.11-5.34l-4-1.78-5.12-2.23a22.06,22.06,0,0,0-2,9.35,20.53,20.53,0,0,0,2.22,9.79L34,60.26Z"/><path id="Tracé_280" data-name="Tracé 280" class="cls-4" d="M63.83,47.35a15.54,15.54,0,0,1,1.11,5.34,12.91,12.91,0,0,1-1.34,5.79l4.23,1.78L73,62.49a25.07,25.07,0,0,0,2.22-9.79,21.91,21.91,0,0,0-2-9.35l-5.12,2.23Z"/></g><g id="Groupe_304" data-name="Groupe 304"><g id="Groupe_299" data-name="Groupe 299"><path id="SVGID" class="cls-5" d="M50.69,74.5A21.8,21.8,0,1,1,72.5,52.69,21.56,21.56,0,0,1,51.2,74.5Zm0-38A16.24,16.24,0,1,0,66.94,52.69,16,16,0,0,0,51.08,36.46Z"/></g><g id="Groupe_303" data-name="Groupe 303"><g class="cls-6"><g id="Groupe_302" data-name="Groupe 302"><g id="Groupe_301" data-name="Groupe 301"><g id="Groupe_300" data-name="Groupe 300"><path id="Tracé_281" data-name="Tracé 281" class="cls-7" d="M50.7,52.92,43.36,36,36,19.1h29.6L58.26,36Z"/><path id="Tracé_282" data-name="Tracé 282" class="cls-7" d="M50.7,52.92l7.56,17.13L65.61,87H36l7.35-16.91Z"/><path id="Tracé_283" data-name="Tracé 283" class="cls-7" d="M50.92,52.92,33.79,60.49,16.88,67.83V38.24l16.91,7.34Z"/></g><path id="Tracé_284" data-name="Tracé 284" class="cls-7" d="M50.7,52.92l17.13-7.34,16.91-7.34V67.83L67.83,60.49Z"/></g></g></g></g></g></g></g></g><g id="Groupe_354" data-name="Groupe 354"><g id="Groupe_312" data-name="Groupe 312"><g id="Groupe_309" data-name="Groupe 309"><g id="Groupe_308" data-name="Groupe 308"><path id="Tracé_286" data-name="Tracé 286" class="cls-8" d="M97.59,46.14l21,21a9.06,9.06,0,0,0,10.69,12.29l-5.55-5.55,6.41-6.41L135.69,73a9.05,9.05,0,0,0-12.28-10.68l-21-21A9.06,9.06,0,0,0,91.71,29.05l5.55,5.55L90.85,41l-5.54-5.54A9.05,9.05,0,0,0,97.59,46.14Z"/></g></g><g id="Groupe_311" data-name="Groupe 311"><g id="Groupe_310" data-name="Groupe 310"><path id="Tracé_287" data-name="Tracé 287" class="cls-9" d="M120.54,66a1.7,1.7,0,0,1-1.2-.5L99.26,45.41a1.7,1.7,0,0,1,.15-2.4,1.67,1.67,0,0,1,2.25,0l20.08,20.07a1.71,1.71,0,0,1,0,2.41A1.69,1.69,0,0,1,120.54,66Z"/></g></g></g><g id="Groupe_353" data-name="Groupe 353"><g id="Groupe_315" data-name="Groupe 315"><g id="Groupe_313" data-name="Groupe 313"><path id="Tracé_288" data-name="Tracé 288" class="cls-10" d="M124.89,36.36,98.19,62.51l2.1,2.1,26.42-26.42Z"/></g><g id="Groupe_314" data-name="Groupe 314"><path id="Tracé_289" data-name="Tracé 289" class="cls-11" d="M128.54,40l-1.82-1.83L100.3,64.61l2.1,2.1Z"/></g></g><g id="Groupe_316" data-name="Groupe 316"><rect id="Rectangle_160" data-name="Rectangle 160" class="cls-12" x="112.03" y="29.63" width="9.06" height="2.41" transform="translate(12.33 91.44) rotate(-44.99)"/></g><g id="Groupe_317" data-name="Groupe 317"><rect id="Rectangle_161" data-name="Rectangle 161" class="cls-11" x="120.78" y="35.06" width="9.06" height="9.06" transform="translate(8.71 100.2) rotate(-45)"/></g><g id="Groupe_318" data-name="Groupe 318"><path id="Tracé_290" data-name="Tracé 290" class="cls-11" d="M121.36,32.43c-1.3-1.3-1.64-3.07-.75-3.95l-6.41,6.4c.89-.88,2.66-.55,4,.75s1.63,3.07.75,4l6.4-6.41C124.43,34.07,122.66,33.73,121.36,32.43Z"/></g><g id="Groupe_319" data-name="Groupe 319"><path id="Tracé_291" data-name="Tracé 291" class="cls-11" d="M131.72,39.59,125.31,46c4.9-4.9,7.81,7.81,7.81,7.81l2.1-.7A15.63,15.63,0,0,0,131.72,39.59Z"/></g><g id="Groupe_322" data-name="Groupe 322"><g id="Groupe_320" data-name="Groupe 320"><path id="Tracé_292" data-name="Tracé 292" class="cls-9" d="M120.51,39.59l4.8,4.8,4.8-4.8Z"/></g><g id="Groupe_321" data-name="Groupe 321"><path id="Tracé_293" data-name="Tracé 293" class="cls-12" d="M125.31,34.78l-4.8,4.8h9.61Z"/></g></g><g id="Groupe_352" data-name="Groupe 352"><g id="Groupe_323" data-name="Groupe 323"><path id="Tracé_294" data-name="Tracé 294" class="cls-13" d="M107.23,57.67a4.53,4.53,0,0,0-6.41,0h0L87.37,71.12a4.53,4.53,0,0,0,6.41,6.41h0l13.45-13.45A4.56,4.56,0,0,0,107.23,57.67Z"/></g><g id="Groupe_351" data-name="Groupe 351"><g id="Groupe_326" data-name="Groupe 326"><g id="Groupe_325" data-name="Groupe 325"><g id="Groupe_324" data-name="Groupe 324"><rect id="Rectangle_162" data-name="Rectangle 162" x="90.25" y="69.56" width="1.13" height="9.06" transform="translate(-25.79 85.91) rotate(-45)"/></g></g></g><g id="Groupe_329" data-name="Groupe 329"><g id="Groupe_328" data-name="Groupe 328"><g id="Groupe_327" data-name="Groupe 327"><rect id="Rectangle_163" data-name="Rectangle 163" x="91.85" y="67.96" width="1.13" height="9.06" transform="translate(-24.19 86.58) rotate(-45)"/></g></g></g><g id="Groupe_332" data-name="Groupe 332"><g id="Groupe_331" data-name="Groupe 331"><g id="Groupe_330" data-name="Groupe 330"><rect id="Rectangle_164" data-name="Rectangle 164" x="93.45" y="66.35" width="1.13" height="9.06" transform="translate(-22.58 87.24) rotate(-45)"/></g></g></g><g id="Groupe_335" data-name="Groupe 335"><g id="Groupe_334" data-name="Groupe 334"><g id="Groupe_333" data-name="Groupe 333"><rect id="Rectangle_165" data-name="Rectangle 165" x="95.05" y="64.75" width="1.13" height="9.06" transform="translate(-20.98 87.9) rotate(-45)"/></g></g></g><g id="Groupe_338" data-name="Groupe 338"><g id="Groupe_337" data-name="Groupe 337"><g id="Groupe_336" data-name="Groupe 336"><rect id="Rectangle_166" data-name="Rectangle 166" x="96.65" y="63.15" width="1.13" height="9.06" transform="translate(-19.38 88.57) rotate(-45)"/></g></g></g><g id="Groupe_341" data-name="Groupe 341"><g id="Groupe_340" data-name="Groupe 340"><g id="Groupe_339" data-name="Groupe 339"><rect id="Rectangle_167" data-name="Rectangle 167" x="98.25" y="61.55" width="1.13" height="9.06" transform="translate(-17.78 89.23) rotate(-45)"/></g></g></g><g id="Groupe_344" data-name="Groupe 344"><g id="Groupe_343" data-name="Groupe 343"><g id="Groupe_342" data-name="Groupe 342"><rect id="Rectangle_168" data-name="Rectangle 168" x="99.86" y="59.95" width="1.13" height="9.06" transform="translate(-16.18 89.89) rotate(-45)"/></g></g></g><g id="Groupe_347" data-name="Groupe 347"><g id="Groupe_346" data-name="Groupe 346"><g id="Groupe_345" data-name="Groupe 345"><rect id="Rectangle_169" data-name="Rectangle 169" x="101.46" y="58.35" width="1.13" height="9.06" transform="translate(-14.58 90.56) rotate(-45)"/></g></g></g><g id="Groupe_350" data-name="Groupe 350"><g id="Groupe_349" data-name="Groupe 349"><g id="Groupe_348" data-name="Groupe 348"><rect id="Rectangle_170" data-name="Rectangle 170" x="103.06" y="56.75" width="1.13" height="9.06" transform="translate(-12.98 91.22) rotate(-45)"/></g></g></g></g></g></g></g></g></g></svg>