<svg id="Calque_1" data-name="Calque 1" xmlns="http://www.w3.org/2000/svg" xmlns:xlink="http://www.w3.org/1999/xlink" viewBox="0 0 160 105"><defs><style>.cls-1{fill:none;}.cls-2{fill:#556c79;}.cls-3{fill:#fff;}.cls-4{fill:url(#Dégradé_sans_nom_6);}.cls-5{fill:#f39200;}.cls-6{fill:#333;}.cls-7{fill:#ededed;}.cls-8{fill:#1a1a1a;}.cls-9{fill:#2b4758;}.cls-10{fill:url(#Dégradé_sans_nom_5);}.cls-11{fill:#ccc;}.cls-12{fill:#e6e6e6;}.cls-13{fill:#b3b3b3;}.cls-14{fill:#666;}.cls-15{fill:#d40613;}.cls-16{fill:#f79331;}.cls-17{fill:#f7931e;}</style><linearGradient id="Dégradé_sans_nom_6" x1="-380.22" y1="1650.83" x2="-380.22" y2="1649.83" gradientTransform="matrix(4.3, 0, 0, -7.67, 1767.81, 12707.75)" gradientUnits="userSpaceOnUse"><stop offset="0" stop-color="#f4f4f4"/><stop offset="1" stop-color="#7a7a7a"/></linearGradient><linearGradient id="Dégradé_sans_nom_5" x1="-324.49" y1="2668.08" x2="-324.49" y2="2667.08" gradientTransform="matrix(55.81, 0, 0, -0.86, 18192.39, 2371.32)" gradientUnits="userSpaceOnUse"><stop offset="0" stop-color="#333"/><stop offset="0.33" stop-color="#212121"/><stop offset="1"/></linearGradient></defs><g id="Icon_craftsmen" data-name="Icon craftsmen"><rect id="Rectangle_439" data-name="Rectangle 439" class="cls-1" width="160" height="105"/><g id="Groupe_822" data-name="Groupe 822"><g id="Groupe_820" data-name="Groupe 820"><g id="Groupe_372" data-name="Groupe 372"><path id="Tracé_317" data-name="Tracé 317" class="cls-2" d="M109.07,36.72a124.27,124.27,0,0,0-12.56-7.5c9.61,2.18,24.6,14.9,24.38,15.25C120.27,45.43,111.29,38.06,109.07,36.72Z"/></g><g id="Groupe_373" data-name="Groupe 373"><path id="Tracé_318" data-name="Tracé 318" class="cls-3" d="M135.11,65.32A1.9,1.9,0,0,1,133,67H25.31a1.89,1.89,0,0,1-2.06-1.64V29.65A1.89,1.89,0,0,1,25.31,28H92c6.92,0,28.92,16.47,28.92,16.47s14.22,4.6,14.22,10.83Z"/></g><g id="Groupe_377" data-name="Groupe 377"><g id="Groupe_374" data-name="Groupe 374"><path id="Tracé_319" data-name="Tracé 319" class="cls-4" d="M130.81,49.27c2.38,1.57,4.3,3.75,4.3,6v1.69C132.48,56.92,131,50.81,130.81,49.27Z"/></g><g id="Groupe_376" data-name="Groupe 376"><g id="Groupe_375" data-name="Groupe 375"><path id="Tracé_320" data-name="Tracé 320" class="cls-5" d="M117.43,48.42a9.54,9.54,0,0,1,2.35-.54c1.14-.1.76,1.85-.87,1.21A14,14,0,0,1,117.43,48.42Z"/></g></g><path id="Tracé_321" data-name="Tracé 321" class="cls-6" d="M130.81,49.27h0l-.24-.16c.23,1.62,1.64,8,4.54,8v-.14C132.48,56.93,131,50.81,130.81,49.27Z"/></g><path id="Tracé_322" data-name="Tracé 322" class="cls-7" d="M127.9,50.73c0,.43-.5.78-1.11.78H28.31c-.62,0-1.11-.35-1.11-.78h0c0-.44.5-.79,1.11-.79h98.48c.61,0,1.11.35,1.11.79Z"/><path id="Tracé_323" data-name="Tracé 323" class="cls-7" d="M108.64,38c0-.55-.17-.78-.75-1.25s-10.93-8-16.37-8H84.33c-1.42,0-1.88.73-1.88,2V65.09h26.19S108.63,38.54,108.64,38Zm-.2,26.83H82.65V30.9c0-1.3.45-2,1.85-2h7.08c5.35,0,15.53,7.44,16.12,8s.74.69.74,1.23,0,26.76,0,26.76Z"/><path id="Tracé_324" data-name="Tracé 324" class="cls-7" d="M50.3,29.38H29.14A1.77,1.77,0,0,0,27.2,30.9s0,12.4,0,13.77.39,1.69,1.49,1.69H50.37c.83,0,1.4-.36,1.4-1.49V30.94a1.43,1.43,0,0,0-1.28-1.56Zm1,15.09c0,1.06-.55,1.4-1.34,1.4H29.11c-1.06,0-1.42-.3-1.43-1.6s0-13,0-13a1.69,1.69,0,0,1,1.86-1.44H49.88a1.35,1.35,0,0,1,1.41,1.29V44.47Z"/><g id="Groupe_378" data-name="Groupe 378"><path id="Tracé_325" data-name="Tracé 325" class="cls-8" d="M107,37.23c-3.15-2.08-11.5-7.86-15.56-7.86H85.15a1.32,1.32,0,0,0-1.5,1.12,1.34,1.34,0,0,0,0,.4v14c0,1.18.53,1.46,1.48,1.46h20.76c1.59,0,2-.36,2-1.71v-6A1.46,1.46,0,0,0,107,37.23Z"/><path id="Tracé_326" data-name="Tracé 326" class="cls-9" d="M105,36.59c-2.8-1.93-10.3-6.6-13.83-6.59H85.53c-.93,0-1.33.51-1.33,1.4v13c0,1.09.47,1.35,1.32,1.35H104c1.41,0,1.76-.33,1.76-1.58V37.88A1.36,1.36,0,0,0,105,36.59Z"/><path id="Tracé_327" data-name="Tracé 327" class="cls-2" d="M105,38.36C102.18,36.8,94.68,33,91.15,33H85.53c-.93,0-1.33.41-1.33,1.13V44.64c0,.88.47,1.09,1.32,1.09H104c1.41,0,1.76-.27,1.76-1.28v-5C105.72,38.88,105.49,38.63,105,38.36Z"/></g><g id="Groupe_379" data-name="Groupe 379"><path id="Tracé_328" data-name="Tracé 328" class="cls-8" d="M111.05,39.87c-1.13-.71-1.76-.57-1.76.42s0,3.46,0,4.57.46,1.5,1.79,1.5C117.15,46.36,118.66,44.84,111.05,39.87Z"/><path id="Tracé_329" data-name="Tracé 329" class="cls-9" d="M111.24,40.5c-.94-.6-1.47-.48-1.47.34s0,2.88,0,3.8.38,1.25,1.49,1.25C116.3,45.89,117.55,44.63,111.24,40.5Z"/><path id="Tracé_330" data-name="Tracé 330" class="cls-2" d="M111.24,41.33c-.94-.5-1.47-.4-1.47.29s0,2.43,0,3.21.38,1.06,1.49,1.06C116.3,45.89,117.55,44.82,111.24,41.33Z"/></g><path id="Tracé_331" data-name="Tracé 331" class="cls-7" d="M78.19,29.38H57a1.78,1.78,0,0,0-1.94,1.53s0,12.4,0,13.77.39,1.69,1.49,1.69H78.26c.83,0,1.4-.36,1.4-1.49V30.94a1.43,1.43,0,0,0-1.28-1.56Zm1,15.09c0,1.06-.54,1.4-1.34,1.4H57c-1.06,0-1.41-.3-1.43-1.6s0-13,0-13a1.7,1.7,0,0,1,1.86-1.44H77.77a1.34,1.34,0,0,1,1.41,1.29.54.54,0,0,1,0,.18Z"/><path id="Tracé_332" data-name="Tracé 332" class="cls-7" d="M79,28.9H56.23a1.89,1.89,0,0,0-2.08,1.61s0,33.47,0,35.6H80.6V30.54a1.51,1.51,0,0,0-1.38-1.64Zm1.38,37H54.33c0-2.11,0-35.23,0-35.23a1.86,1.86,0,0,1,2.05-1.59H78.84a1.5,1.5,0,0,1,1.56,1.44.61.61,0,0,1,0,.19Z"/><g id="Groupe_382" data-name="Groupe 382"><g id="Groupe_380" data-name="Groupe 380"><path id="Tracé_333" data-name="Tracé 333" class="cls-6" d="M23.25,57.11c-.53,0-.69.4-.69,1v.46a.7.7,0,0,1,.42.9.72.72,0,0,1-.42.42V65.3a1.89,1.89,0,0,0,2.06,1.64h5.63l6-9.83S23.78,57.09,23.25,57.11Z"/></g><g id="Groupe_381" data-name="Groupe 381"><path id="Tracé_334" data-name="Tracé 334" d="M22,65.3A1.89,1.89,0,0,0,24.06,67l6.53,0,.56-2.4H22.56A.67.67,0,0,0,22,65.3Z"/></g><path id="Tracé_335" data-name="Tracé 335" d="M31.41,58.62H22.59a.71.71,0,0,1,.39.91.73.73,0,0,1-.4.39h8.83a.65.65,0,0,0,0-1.3Z"/></g><g id="Groupe_383" data-name="Groupe 383"><path id="Tracé_336" data-name="Tracé 336" d="M54.14,48.24H33.29c-.35,0-.63.19-.63.43s.28.44.63.44H54.14Z"/></g><g id="Groupe_384" data-name="Groupe 384"><path id="Tracé_337" data-name="Tracé 337" d="M53.74,67H30.29a11.73,11.73,0,0,1,23.45,0Z"/><path id="Tracé_338" data-name="Tracé 338" d="M52,67H32.06A10,10,0,0,1,52,66.67,1.4,1.4,0,0,1,52,67Z"/></g><g id="Groupe_385" data-name="Groupe 385"><path id="Tracé_339" data-name="Tracé 339" class="cls-6" d="M108.77,55.62v1.07c2-.13,3.17-.3,3.16-.54S110.79,55.75,108.77,55.62Z"/><path id="Tracé_340" data-name="Tracé 340" class="cls-6" d="M54.46,55.47v1.36c5.54.23,15,.23,25.81.23V55.24C69.49,55.24,60,55.24,54.46,55.47Z"/><path id="Tracé_341" data-name="Tracé 341" class="cls-6" d="M54,55.49c-3,.13-4.75.34-4.74.66s1.74.52,4.74.66Z"/><path id="Tracé_342" data-name="Tracé 342" class="cls-6" d="M80.72,55.24v1.82h1.61V55.24Z"/><path id="Tracé_343" data-name="Tracé 343" class="cls-6" d="M82.78,55.24v1.82c11.09,0,20.61-.06,25.54-.35V55.59C103.39,55.3,93.89,55.24,82.78,55.24Z"/></g><g id="Groupe_387" data-name="Groupe 387"><g id="Groupe_386" data-name="Groupe 386"><path id="Tracé_344" data-name="Tracé 344" class="cls-6" d="M135.92,64.13a45.5,45.5,0,0,0,.76-5.45,1.42,1.42,0,0,0-1.2-1.59H125.31V67l8.14,0a2.21,2.21,0,0,0,2.17-1.51.8.8,0,0,1,0-1.13A.78.78,0,0,1,135.92,64.13Z"/></g><path id="Tracé_345" data-name="Tracé 345" d="M136.59,58.39h-8.16v1.3h8.16a.65.65,0,1,0,0-1.3Z"/><path id="Tracé_346" data-name="Tracé 346" d="M135.85,64.15h-2.49a.66.66,0,0,0,0,1.31h2.24a.81.81,0,0,1,0-1.14A.92.92,0,0,1,135.85,64.15Z"/></g><rect id="Rectangle_174" data-name="Rectangle 174" class="cls-10" x="53.69" y="66.1" width="55.81" height="0.86"/><g id="Groupe_388" data-name="Groupe 388"><path id="Tracé_347" data-name="Tracé 347" d="M132.58,67H109.12a11.73,11.73,0,0,1,23.46,0Z"/><path id="Tracé_348" data-name="Tracé 348" d="M130.8,67H110.9a10,10,0,0,1,19.9,0Z"/></g><g id="Groupe_391" data-name="Groupe 391"><g id="Groupe_389" data-name="Groupe 389"><circle id="Ellipse_76" data-name="Ellipse 76" class="cls-6" cx="41.97" cy="67.35" r="9.25"/></g><g id="Groupe_390" data-name="Groupe 390"><path id="Tracé_349" data-name="Tracé 349" class="cls-11" d="M47.63,67.35A5.66,5.66,0,1,1,42,61.69a5.66,5.66,0,0,1,5.66,5.66Z"/><path id="Tracé_350" data-name="Tracé 350" class="cls-3" d="M47.51,67.35A5.54,5.54,0,1,1,42,61.81"/><path id="Tracé_351" data-name="Tracé 351" class="cls-12" d="M47.49,67.35A5.52,5.52,0,1,1,42,61.83a5.52,5.52,0,0,1,5.52,5.52Z"/><path id="Tracé_352" data-name="Tracé 352" d="M46,67.34A4.06,4.06,0,1,1,42,63.28,4.06,4.06,0,0,1,46,67.34Z"/><path id="Tracé_353" data-name="Tracé 353" class="cls-13" d="M42,62.6a4.76,4.76,0,1,0,4.76,4.75h0A4.76,4.76,0,0,0,42,62.6Zm0,8.81A4.06,4.06,0,1,1,46,67.35h0A4.06,4.06,0,0,1,42,71.41Z"/></g><path id="Tracé_354" data-name="Tracé 354" class="cls-11" d="M44.8,67c-.3,0-.35-.32-.11-.46s.74-.46,1.05-.65a3.52,3.52,0,0,0-.18-.4l-1.06.85a.76.76,0,0,1-1.06-.06.75.75,0,0,1,.06-1.06l.07-.06,1-.84L44.27,64l-.85.87c-.21.21-.46.08-.42-.2s.1-.86.15-1.22l-.43-.11v1.35a.75.75,0,1,1-1.5.11V63.36a3.25,3.25,0,0,0-.42.11c0,.35.12,1,.15,1.21s-.23.42-.42.21L39.67,64a3,3,0,0,0-.35.27l1.06.84a.76.76,0,0,1-.85,1.25l-.09-.08-1.06-.84a2.87,2.87,0,0,0-.18.4l1,.64c.26.16.19.43-.1.46l-1.22.12a2.81,2.81,0,0,0,0,.29v.15l1.31-.3a.75.75,0,0,1,.45,1.44l-.11,0-1.32.3c.06.13.13.26.2.39L39.59,69c.28-.1.45.12.3.36l-.67,1,.34.28.59-1.22a.75.75,0,0,1,1-.43.76.76,0,0,1,.43,1s0,.07,0,.1l-.59,1.22a3.29,3.29,0,0,0,.43.09l.39-1.16c.1-.29.38-.28.47,0s.28.82.39,1.17c.15,0,.29-.06.43-.09l-.58-1.22a.75.75,0,0,1,.28-1,.74.74,0,0,1,1,.28.31.31,0,0,1,0,.1l.59,1.21a2.88,2.88,0,0,0,.33-.28l-.66-1c-.16-.25,0-.47.29-.37l1.15.42a2.14,2.14,0,0,0,.2-.4l-1.31-.3a.75.75,0,1,1,.25-1.48l.08,0,1.32.3v-.16a2.62,2.62,0,0,0,0-.28Z"/><path id="Tracé_355" data-name="Tracé 355" class="cls-13" d="M43.56,67.35A1.59,1.59,0,1,1,42,65.77h0A1.59,1.59,0,0,1,43.56,67.35Z"/><path id="Tracé_356" data-name="Tracé 356" class="cls-12" d="M43.25,67.35A1.29,1.29,0,1,1,42,66.07a1.28,1.28,0,0,1,1.28,1.28Z"/></g><g id="Groupe_392" data-name="Groupe 392"><path id="Tracé_357" data-name="Tracé 357" class="cls-7" d="M90.78,48.23c0,.67-1.39,1.21-3.1,1.21s-3.11-.54-3.11-1.21S86,47,87.68,47,90.78,47.57,90.78,48.23Z"/><path id="Tracé_358" data-name="Tracé 358" class="cls-6" d="M91.52,48.21a.54.54,0,0,1-.27.44c-.59.43-1.93,0-3.54,0s-2.85.43-3.5,0a.54.54,0,0,1-.31-.48.51.51,0,0,1,.26-.44c.62-.42,1.93.14,3.55.14s2.92-.54,3.55-.13A.48.48,0,0,1,91.52,48.21Z"/></g><g id="Groupe_393" data-name="Groupe 393"><path id="Tracé_359" data-name="Tracé 359" class="cls-7" d="M78.71,48.24c0,.66-1.39,1.2-3.1,1.2s-3.11-.54-3.11-1.2S73.89,47,75.61,47,78.71,47.57,78.71,48.24Z"/><path id="Tracé_360" data-name="Tracé 360" class="cls-6" d="M79.45,48.21a.54.54,0,0,1-.27.44c-.59.43-1.93,0-3.54,0s-2.85.43-3.5,0a.53.53,0,0,1-.31-.48.51.51,0,0,1,.26-.44c.62-.42,1.93.14,3.55.14s2.91-.54,3.55-.13A.51.51,0,0,1,79.45,48.21Z"/></g><g id="Groupe_394" data-name="Groupe 394"><path id="Tracé_361" data-name="Tracé 361" class="cls-14" d="M103.62,37.16c-.31.09-.22.23-.54.72-.48.75-.47,5.65,0,6.27.26.35.23.63.54.72Z"/><path id="Tracé_362" data-name="Tracé 362" class="cls-6" d="M105,43.42c0,.42-.78,1.47-1.19,1.47h0a.74.74,0,0,1-.73-.74h0V37.88a.74.74,0,0,1,.73-.75h0c.4,0,1.19,1.07,1.19,1.48Z"/><path id="Tracé_363" data-name="Tracé 363" d="M106.24,39.87S105,38.76,105,39.09V43c0,.34,1.19-.77,1.19-.77.5,0,1-.09,1-.42V40.26C107.18,39.93,106.74,39.87,106.24,39.87ZM106,41.8s-.47.72-.47.5V39.77c0-.22.5.5.5.5.32,0,.29,1.53,0,1.53Z"/><path id="Tracé_364" data-name="Tracé 364" d="M103.62,37.16a.76.76,0,0,0-.54.72v6.27a.75.75,0,0,0,.54.72Z"/></g><g id="Groupe_399" data-name="Groupe 399"><g id="Groupe_395" data-name="Groupe 395"><path id="Tracé_365" data-name="Tracé 365" class="cls-15" d="M23,45.91v10.6a.31.31,0,0,0,.25.34A1.74,1.74,0,0,0,25,55.35V47a1.72,1.72,0,0,0-1.72-1.49C23.16,45.54,23,45.61,23,45.91Z"/></g><g id="Groupe_398" data-name="Groupe 398"><path id="Tracé_366" data-name="Tracé 366" class="cls-5" d="M23,45.91v3.31c2,0,2-2.18,2-2.18a1.74,1.74,0,0,0-1.73-1.49C23.16,45.54,23,45.61,23,45.91Z"/><g id="Groupe_397" data-name="Groupe 397"><g id="Groupe_396" data-name="Groupe 396"><path id="Tracé_367" data-name="Tracé 367" class="cls-12" d="M24.23,55.05c0,.35-.92.65-1.15.65h0c-.22,0-.4-.3-.4-.65V54c0-.36.18-.65.4-.65h0c.23,0,1.15.29,1.15.65Z"/></g></g></g></g><g id="Groupe_402" data-name="Groupe 402"><g id="Groupe_400" data-name="Groupe 400"><circle id="Ellipse_77" data-name="Ellipse 77" class="cls-6" cx="120.82" cy="67.38" r="9.25"/></g><g id="Groupe_401" data-name="Groupe 401"><path id="Tracé_368" data-name="Tracé 368" class="cls-11" d="M126.48,67.38a5.66,5.66,0,1,1-5.66-5.66h0A5.65,5.65,0,0,1,126.48,67.38Z"/><path id="Tracé_369" data-name="Tracé 369" class="cls-3" d="M126.36,67.38a5.54,5.54,0,1,1-5.54-5.54"/><path id="Tracé_370" data-name="Tracé 370" class="cls-12" d="M126.34,67.38a5.52,5.52,0,1,1-5.52-5.52,5.52,5.52,0,0,1,5.52,5.52Z"/><circle id="Ellipse_78" data-name="Ellipse 78" cx="120.82" cy="67.37" r="4.06"/><path id="Tracé_371" data-name="Tracé 371" class="cls-13" d="M120.82,62.62a4.76,4.76,0,1,0,4.76,4.76h0a4.76,4.76,0,0,0-4.76-4.76Zm0,8.81a4.06,4.06,0,1,1,4.06-4.05h0A4.05,4.05,0,0,1,120.82,71.43Z"/></g><path id="Tracé_372" data-name="Tracé 372" class="cls-11" d="M123.66,67c-.3,0-.36-.32-.11-.46l1-.65c-.06-.13-.12-.27-.19-.4l-1,.85a.77.77,0,0,1-1.07-.07.76.76,0,0,1,.07-1.06l.06,0,1-.84-.34-.27-.86.88c-.21.21-.46.08-.42-.2s.1-.86.15-1.22l-.43-.11v1.35a.75.75,0,1,1-1.5.11V63.38l-.42.11c0,.35.12,1,.15,1.21s-.22.42-.42.21l-.86-.88a3,3,0,0,0-.35.27l1.06.84a.76.76,0,1,1-.85,1.25l-.09-.07-1.05-.85c-.07.13-.13.27-.19.4l1,.64c.25.16.18.43-.1.46l-1.23.13a2.53,2.53,0,0,0,0,.28v.15l1.32-.3a.76.76,0,0,1,.94.5.75.75,0,0,1-.5.94l-.11,0-1.32.3c.06.13.13.26.2.39l1.15-.42c.28-.1.46.13.3.36s-.47.73-.66,1c.1.1.22.19.33.28l.59-1.22a.76.76,0,0,1,1-.41.75.75,0,0,1,.41,1,.2.2,0,0,1,0,.08l-.58,1.22a3.15,3.15,0,0,0,.42.09c.12-.34.33-1,.39-1.16s.39-.28.47,0,.28.83.4,1.17a3.29,3.29,0,0,0,.43-.09l-.59-1.22a.75.75,0,0,1,.29-1,.74.74,0,0,1,1,.28.41.41,0,0,1,.05.09l.58,1.22.34-.28-.67-1c-.16-.25,0-.47.29-.37l1.16.42c.07-.13.14-.26.2-.39l-1.32-.3a.76.76,0,0,1-.63-.86.75.75,0,0,1,.86-.63l.11,0,1.31.3v-.15a2.53,2.53,0,0,0,0-.28Z"/><path id="Tracé_373" data-name="Tracé 373" class="cls-13" d="M122.41,67.38a1.59,1.59,0,1,1-1.59-1.59,1.59,1.59,0,0,1,1.59,1.59Z"/><path id="Tracé_374" data-name="Tracé 374" class="cls-12" d="M122.11,67.38a1.29,1.29,0,0,1-1.29,1.28,1.28,1.28,0,1,1,1.29-1.28Z"/></g></g><g id="Groupe_821" data-name="Groupe 821"><g id="Groupe_38" data-name="Groupe 38"><path id="Tracé_36" data-name="Tracé 36" class="cls-16" d="M37.13,33.17V43.42h-1V34.77L34.38,37l-1.73-2.25v8.65h-1V33.17h1l1.72,2.18,1.74-2.17Z"/><path id="Tracé_39" data-name="Tracé 39" class="cls-16" d="M42.68,34.28l-.38.15-.35.14-.29.14a4.63,4.63,0,0,0-.9.68,4.43,4.43,0,0,0-.68.87,4.24,4.24,0,0,0,0,4.31,4.43,4.43,0,0,0,1.58,1.55,9.1,9.1,0,0,0,1,.42V43.6a4.5,4.5,0,0,1-1-.33,5.25,5.25,0,0,1-3.2-4.86,4.88,4.88,0,0,1,.41-2A5.27,5.27,0,0,1,40,34.68a5,5,0,0,1,1.65-1.12,5.25,5.25,0,0,1,1-.32Z"/><path id="Tracé_44" data-name="Tracé 44" class="cls-17" d="M44,33.13h.9a2.72,2.72,0,0,1,1.28.28,2,2,0,0,1,.84.75,2,2,0,0,1,0,2,4.33,4.33,0,0,1,1.05,1.39,4.12,4.12,0,0,1-.05,3.56,4.39,4.39,0,0,1-1.2,1.47,4.79,4.79,0,0,1-1.74.85,4.53,4.53,0,0,1-1.1.13Zm1.1,1v2.21a1.19,1.19,0,0,0,.84-.32,1.1,1.1,0,0,0,0-1.57,1.17,1.17,0,0,0-.83-.32Zm1.16,2.83a2.79,2.79,0,0,1-1.16.35v5.1a3.3,3.3,0,0,0,.9-.45,3.89,3.89,0,0,0,.74-.72,3,3,0,0,0,.63-1.88,3.09,3.09,0,0,0-.28-1.27,3.56,3.56,0,0,0-.83-1.13Z"/></g></g></g></g></svg>