<svg id="Calque_1" data-name="Calque 1" xmlns="http://www.w3.org/2000/svg" viewBox="0 0 49.85 37.97"><defs><style>.cls-1{fill:#f79331;}.cls-2{fill:#fff;}.cls-3{fill:#d8d8da;}.cls-4{fill:#707070;}.cls-5{fill:#242c3c;}.cls-6{fill:#2b3a49;}.cls-7{fill:#c4c4c4;}.cls-8{fill:#a2a2a2;}.cls-9{fill:#e4e4e4;}</style></defs><g id="Icon_supplies_list_mini" data-name="Icon supplies list mini"><g id="Groupe_266-2" data-name="Groupe 266-2"><g id="Groupe_156-2" data-name="Groupe 156-2"><g id="Groupe_107-2" data-name="Groupe 107-2"><g id="Groupe_106-2" data-name="Groupe 106-2"><circle id="Ellipse_52-2" data-name="Ellipse 52-2" class="cls-1" cx="28.29" cy="34.26" r="3.71"/></g></g><g id="Groupe_112-2" data-name="Groupe 112-2"><g id="Groupe_109-2" data-name="Groupe 109-2"><g id="Groupe_108-2" data-name="Groupe 108-2"><path id="Tracé_210-2" data-name="Tracé 210-2" class="cls-2" d="M48,10.3,27.37,31.65l.89.86L48.47,11.6Z"/></g></g><g id="Groupe_111-2" data-name="Groupe 111-2"><g id="Groupe_110-2" data-name="Groupe 110-2"><path id="Tracé_211-2" data-name="Tracé 211-2" class="cls-3" d="M49.85,15.51,48.47,11.6,28.26,32.51l2.66,2.58Z"/></g></g></g><g id="Groupe_146-2" data-name="Groupe 146-2"><g id="Groupe_115-2" data-name="Groupe 115-2"><g id="Groupe_114-2" data-name="Groupe 114-2"><g id="Groupe_113-2" data-name="Groupe 113-2"><rect id="Rectangle_119-2" data-name="Rectangle 119-2" class="cls-2" x="33.41" y="27.71" width="0.13" height="4.15" transform="translate(-8 12.81) rotate(-19.41)"/></g></g></g><g id="Groupe_118-2" data-name="Groupe 118-2"><g id="Groupe_117-2" data-name="Groupe 117-2"><g id="Groupe_116-2" data-name="Groupe 116-2"><rect id="Rectangle_120-2" data-name="Rectangle 120-2" class="cls-2" x="34.8" y="26.27" width="0.13" height="4.15" transform="translate(-7.44 13.19) rotate(-19.41)"/></g></g></g><g id="Groupe_121-2" data-name="Groupe 121-2"><g id="Groupe_120-2" data-name="Groupe 120-2"><g id="Groupe_119-2" data-name="Groupe 119-2"><rect id="Rectangle_121-2" data-name="Rectangle 121-2" class="cls-2" x="36.2" y="24.82" width="0.13" height="4.15" transform="translate(-6.88 13.58) rotate(-19.41)"/></g></g></g><g id="Groupe_124-2" data-name="Groupe 124-2"><g id="Groupe_123-2" data-name="Groupe 123-2"><g id="Groupe_122-2" data-name="Groupe 122-2"><rect id="Rectangle_122-2" data-name="Rectangle 122-2" class="cls-2" x="37.6" y="23.38" width="0.13" height="4.15" transform="translate(-6.32 13.96) rotate(-19.41)"/></g></g></g><g id="Groupe_127-2" data-name="Groupe 127-2"><g id="Groupe_126-2" data-name="Groupe 126-2"><g id="Groupe_125-2" data-name="Groupe 125-2"><rect id="Rectangle_123-2" data-name="Rectangle 123-2" class="cls-2" x="38.99" y="21.93" width="0.13" height="4.15" transform="translate(-5.76 14.34) rotate(-19.41)"/></g></g></g><g id="Groupe_130-2" data-name="Groupe 130-2"><g id="Groupe_129-2" data-name="Groupe 129-2"><g id="Groupe_128-2" data-name="Groupe 128-2"><rect id="Rectangle_124-2" data-name="Rectangle 124-2" class="cls-2" x="40.39" y="20.49" width="0.13" height="4.15" transform="translate(-5.2 14.72) rotate(-19.41)"/></g></g></g><g id="Groupe_133-2" data-name="Groupe 133-2"><g id="Groupe_132-2" data-name="Groupe 132-2"><g id="Groupe_131-2" data-name="Groupe 131-2"><rect id="Rectangle_125-2" data-name="Rectangle 125-2" class="cls-2" x="41.79" y="19.04" width="0.13" height="4.15" transform="translate(-4.64 15.1) rotate(-19.41)"/></g></g></g><g id="Groupe_136-2" data-name="Groupe 136-2"><g id="Groupe_135-2" data-name="Groupe 135-2"><g id="Groupe_134-2" data-name="Groupe 134-2"><rect id="Rectangle_126-2" data-name="Rectangle 126-2" class="cls-2" x="43.18" y="17.6" width="0.13" height="4.15" transform="translate(-4.08 15.49) rotate(-19.41)"/></g></g></g><g id="Groupe_139-2" data-name="Groupe 139-2"><g id="Groupe_138-2" data-name="Groupe 138-2"><g id="Groupe_137-2" data-name="Groupe 137-2"><rect id="Rectangle_127-2" data-name="Rectangle 127-2" class="cls-2" x="44.58" y="16.15" width="0.13" height="4.15" transform="translate(-3.52 15.87) rotate(-19.41)"/></g></g></g><g id="Groupe_142-2" data-name="Groupe 142-2"><g id="Groupe_141-2" data-name="Groupe 141-2"><g id="Groupe_140-2" data-name="Groupe 140-2"><rect id="Rectangle_128-2" data-name="Rectangle 128-2" class="cls-2" x="45.98" y="14.71" width="0.13" height="4.15" transform="translate(-2.96 16.25) rotate(-19.41)"/></g></g></g><g id="Groupe_145-2" data-name="Groupe 145-2"><g id="Groupe_144-2" data-name="Groupe 144-2"><g id="Groupe_143-2" data-name="Groupe 143-2"><rect id="Rectangle_129-2" data-name="Rectangle 129-2" class="cls-2" x="47.37" y="13.26" width="0.13" height="4.15" transform="translate(-2.4 16.63) rotate(-19.41)"/></g></g></g></g><g id="Groupe_151-2" data-name="Groupe 151-2"><g id="Groupe_148-2" data-name="Groupe 148-2"><g id="Groupe_147-2" data-name="Groupe 147-2"><path id="Tracé_212-2" data-name="Tracé 212-2" class="cls-4" d="M25.62,31.68,27.4,33.4,45,15.16l-2.64-.83Z"/></g></g><g id="Groupe_150-2" data-name="Groupe 150-2"><g id="Groupe_149-2" data-name="Groupe 149-2"><path id="Tracé_213-2" data-name="Tracé 213-2" class="cls-4" d="M46.81,16.88,29.18,35.12,31,36.84,47.73,19.49Z"/></g></g></g><g id="Groupe_153-2" data-name="Groupe 153-2"><g id="Groupe_152-2" data-name="Groupe 152-2"><rect id="Rectangle_130-2" data-name="Rectangle 130-2" class="cls-5" x="30.11" y="27.96" width="4.95" height="3.71" transform="translate(-11.5 32.52) rotate(-45.97)"/></g></g><g id="Groupe_155-2" data-name="Groupe 155-2"><g id="Groupe_154-2" data-name="Groupe 154-2"><rect id="Rectangle_131-2" data-name="Rectangle 131-2" class="cls-6" x="30.77" y="29.51" width="0.62" height="3.71" transform="translate(-13.07 31.91) rotate(-45.97)"/></g></g></g><g id="Groupe_243" data-name="Groupe 243"><g id="Groupe_208" data-name="Groupe 208"><g id="Groupe_207" data-name="Groupe 207"><g id="Groupe_206" data-name="Groupe 206"><path id="Tracé_224" data-name="Tracé 224" class="cls-7" d="M5.19,7.69s2.28,4.11,9.73,7.91l1.56.79c1-.43,2.66-.49,5,.6a5.57,5.57,0,0,1,2.61,3.24v0h0a2.63,2.63,0,1,0,.58-2.42c-.89-.57-1.8-1.14-2.33-1.41ZM27.43,18a1.76,1.76,0,1,1-2.35.77h0A1.75,1.75,0,0,1,27.43,18Z"/></g></g></g><g id="Groupe_211" data-name="Groupe 211"><g id="Groupe_210" data-name="Groupe 210"><g id="Groupe_209" data-name="Groupe 209"><path id="Tracé_225" data-name="Tracé 225" class="cls-8" d="M18,19.24c0,.59.18,1.65.35,2.7a2.61,2.61,0,1,0,2.45.45h0a5.53,5.53,0,0,1-1.92-3.7c0-2.58.71-4.12,1.49-4.82L20.3,12.1C19.86,3.75,17,0,17,0Zm2.9,5.11a1.75,1.75,0,1,1-1.84-1.66h0A1.75,1.75,0,0,1,20.94,24.35Z"/></g></g></g><g id="Groupe_213" data-name="Groupe 213"><g id="Groupe_212" data-name="Groupe 212"><path id="Tracé_226" data-name="Tracé 226" class="cls-4" d="M18.26,14.94a.44.44,0,1,1-.13.61h0A.45.45,0,0,1,18.26,14.94Z"/></g></g></g></g><path id="Icon_open-list-2" data-name="Icon open-list-2" class="cls-9" d="M1.09,20.81A1.08,1.08,0,0,0,0,21.88v0A1.08,1.08,0,0,0,1.07,23h0a1.08,1.08,0,0,0,1.09-1.07v0a1.08,1.08,0,0,0-1.07-1.09Zm3.27,0V23H14.68L16,20.81ZM1.09,25.17a1.09,1.09,0,1,0,1.09,1.09A1.09,1.09,0,0,0,1.09,25.17Zm3.27,0v2.18H15.41l-.73-1.91v-.27ZM1.09,29.53a1.09,1.09,0,1,0,1.09,1.09A1.09,1.09,0,0,0,1.09,29.53Zm3.27,0v2.18H17.44V29.53ZM1.09,33.89A1.09,1.09,0,1,0,2.18,35,1.09,1.09,0,0,0,1.09,33.89Zm3.27,0v2.18H17.44V33.89Z"/></g></svg>