<svg id="Calque_1" data-name="Calque 1" xmlns="http://www.w3.org/2000/svg" viewBox="0 0 160 105"><defs><style>.cls-1{fill:none;}.cls-2{fill:#f0b14e;}.cls-3{fill:#ffd45a;}.cls-4{fill:#6d3f08;}.cls-5{fill:#84520f;}.cls-6{fill:#5f5f5f;}.cls-7{fill:#e6e6e6;}.cls-8{fill:#f79331;}</style></defs><g id="Icon_community-ads" data-name="Icon community-ads"><rect id="Rectangle_437" data-name="Rectangle 437" class="cls-1" width="160" height="105"/><g id="Groupe_823" data-name="Groupe 823"><g id="Groupe_469" data-name="Groupe 469"><g id="Groupe_441" data-name="Groupe 441"><path id="Tracé_394" data-name="Tracé 394" class="cls-2" d="M27,79.15l12.29-3.06,3.51,3.06Z"/><g id="Groupe_424" data-name="Groupe 424"><g id="Groupe_411" data-name="Groupe 411"><g id="Groupe_410" data-name="Groupe 410"><g id="Groupe_409" data-name="Groupe 409"><rect id="Rectangle_183" data-name="Rectangle 183" class="cls-3" x="27" y="79.15" width="21.88" height="4.86"/></g></g></g><g id="Groupe_423" data-name="Groupe 423"><g id="Groupe_413" data-name="Groupe 413"><g id="Groupe_412" data-name="Groupe 412"><path id="Tracé_395" data-name="Tracé 395" class="cls-3" d="M36.72,71.86A12.16,12.16,0,0,1,48.88,59.7V84A12.16,12.16,0,0,1,36.72,71.86Z"/></g></g><g id="Groupe_415" data-name="Groupe 415"><g id="Groupe_414" data-name="Groupe 414"><path id="Tracé_396" data-name="Tracé 396" class="cls-3" d="M48.88,84V59.7A12.16,12.16,0,1,1,49.1,84Z"/></g></g><g id="Groupe_417" data-name="Groupe 417"><g id="Groupe_416" data-name="Groupe 416"><circle id="Ellipse_83" data-name="Ellipse 83" class="cls-2" cx="48.88" cy="71.86" r="7.29"/></g></g><g id="Groupe_422" data-name="Groupe 422"><g id="Groupe_419" data-name="Groupe 419"><g id="Groupe_418" data-name="Groupe 418"><path id="Tracé_397" data-name="Tracé 397" class="cls-4" d="M46.45,71.86a4.86,4.86,0,0,0,3.64,4.7,4.86,4.86,0,1,1-2.42-9.41,4.73,4.73,0,0,1,2.42,0A4.86,4.86,0,0,0,46.45,71.86Z"/></g></g><g id="Groupe_421" data-name="Groupe 421"><g id="Groupe_420" data-name="Groupe 420"><ellipse id="Ellipse_84" data-name="Ellipse 84" class="cls-5" cx="50.09" cy="71.86" rx="3.65" ry="4.71"/></g></g></g></g></g><g id="Groupe_440" data-name="Groupe 440"><g id="Groupe_427" data-name="Groupe 427"><g id="Groupe_426" data-name="Groupe 426"><g id="Groupe_425" data-name="Groupe 425"><rect id="Rectangle_184" data-name="Rectangle 184" class="cls-3" x="61.03" y="71.86" width="21.88" height="4.86"/></g></g></g><g id="Groupe_439" data-name="Groupe 439"><g id="Groupe_429" data-name="Groupe 429"><g id="Groupe_428" data-name="Groupe 428"><path id="Tracé_398" data-name="Tracé 398" class="cls-3" d="M70.76,64.56A12.15,12.15,0,0,1,82.91,52.41V76.72A12.15,12.15,0,0,1,70.76,64.56Z"/></g></g><g id="Groupe_431" data-name="Groupe 431"><g id="Groupe_430" data-name="Groupe 430"><path id="Tracé_399" data-name="Tracé 399" class="cls-3" d="M82.91,76.72V52.41a12.16,12.16,0,1,1,.23,24.31Z"/></g></g><g id="Groupe_433" data-name="Groupe 433"><g id="Groupe_432" data-name="Groupe 432"><circle id="Ellipse_85" data-name="Ellipse 85" class="cls-2" cx="82.91" cy="64.56" r="7.29"/></g></g><g id="Groupe_438" data-name="Groupe 438"><g id="Groupe_435" data-name="Groupe 435"><g id="Groupe_434" data-name="Groupe 434"><path id="Tracé_400" data-name="Tracé 400" class="cls-4" d="M80.48,64.56a4.86,4.86,0,0,0,3.65,4.71,4.86,4.86,0,0,1-2.43-9.41,4.77,4.77,0,0,1,2.43,0A4.86,4.86,0,0,0,80.48,64.56Z"/></g></g><g id="Groupe_437" data-name="Groupe 437"><g id="Groupe_436" data-name="Groupe 436"><ellipse id="Ellipse_86" data-name="Ellipse 86" class="cls-5" cx="84.13" cy="64.56" rx="3.65" ry="4.71"/></g></g></g></g></g><path id="Tracé_401" data-name="Tracé 401" class="cls-3" d="M44.91,60.29s29.82-8,38-7.88c0,0,22.29,14.24,4.08,23.83,0,0-29.43,7.77-36.9,7.77,0,0,5.77-6.5,6.81-9.44S57.36,64.24,44.91,60.29Z"/></g></g><g id="Groupe_493" data-name="Groupe 493"><path id="Tracé_392" data-name="Tracé 392" class="cls-6" d="M94.55,84.12l16.6-54.45,4-7.18,0-.07a4,4,0,0,0-.42-2.65,2.43,2.43,0,0,0-1.61-1,71.58,71.58,0,0,0-7.44-.63h-.07c-.14,0-3.33.49-4,3.27l-3.47,6.32,0,0L82.42,79.41l.87.27L99,28.07l3.48-6.34v-.06c.51-2.1,3-2.58,3.28-2.64a72.83,72.83,0,0,1,7.26.62,1.48,1.48,0,0,1,1,.62,3,3,0,0,1,.3,1.9l-4,7.14v.05L93.69,83.86Z"/><circle id="Ellipse_79" data-name="Ellipse 79" class="cls-6" cx="86.61" cy="74.54" r="6.12"/><circle id="Ellipse_80" data-name="Ellipse 80" class="cls-7" cx="87.72" cy="74.54" r="2.71"/><path id="Tracé_391" data-name="Tracé 391" class="cls-6" d="M82.75,78.81,96.1,84.37l-.42,1.33L88,84.83,75,79.06l7.23.83Z"/><rect id="Rectangle_180" data-name="Rectangle 180" class="cls-6" x="102.44" y="28.37" width="0.9" height="12.18" transform="translate(50.69 129.59) rotate(-79.76)"/><rect id="Rectangle_181" data-name="Rectangle 181" class="cls-6" x="100.15" y="35.92" width="0.9" height="12.15" transform="translate(39.34 132.16) rotate(-78.46)"/><rect id="Rectangle_182" data-name="Rectangle 182" class="cls-6" x="95.98" y="49.62" width="0.9" height="12.08" transform="translate(16.39 133.06) rotate(-74.03)"/><path id="Tracé_393" data-name="Tracé 393" class="cls-6" d="M98.61,79.2l.33-.84L87.66,73.94l-.55-6,10.52,3.93,3.42,4.94.74-.52-3.57-5.16L86.07,66.59l.74,8Z"/><circle id="Ellipse_81" data-name="Ellipse 81" class="cls-6" cx="102.53" cy="80.38" r="6.12"/><circle id="Ellipse_82" data-name="Ellipse 82" class="cls-7" cx="104.13" cy="80.66" r="2.71"/><g id="Groupe_492" data-name="Groupe 492"><path id="Tracé_443" data-name="Tracé 443" class="cls-8" d="M101.23,24l1.24-2.25v-.06c.51-2.1,3-2.58,3.27-2.64a72.83,72.83,0,0,1,7.26.62,1.48,1.48,0,0,1,1,.62,3,3,0,0,1,.3,1.9l-2,3.54,1,.15,1.9-3.37v-.07a3.87,3.87,0,0,0-.42-2.65,2.34,2.34,0,0,0-1.61-1c-2.23-.42-7.22-.63-7.43-.64h-.08c-.14,0-3.33.49-4,3.27l-1.33,2.43Z"/><path id="Tracé_444" data-name="Tracé 444" class="cls-8" d="M113.35,26l-1.21-.19,2.07-3.68a2.76,2.76,0,0,0-.29-1.8,1.38,1.38,0,0,0-.93-.56c-2-.38-6.72-.59-7.24-.61s-2.67.57-3.15,2.55l0,.09-1.27,2.31-1.22-.19,1.42-2.58c.73-2.82,4-3.31,4.14-3.33h.1q3.75.13,7.46.63a2.53,2.53,0,0,1,1.69,1.07,4.05,4.05,0,0,1,.43,2.75l0,.11Zm-.81-.38.68.11,1.86-3.33a3.77,3.77,0,0,0-.41-2.57,2.27,2.27,0,0,0-1.52-.95q-3.69-.49-7.41-.63h-.06c-.13,0-3.25.49-4,3.18l-1.26,2.3.7.11,1.19-2.2c.52-2.13,2.9-2.65,3.37-2.74s5.25.24,7.3.62a1.62,1.62,0,0,1,1.1.68,3.08,3.08,0,0,1,.32,2v0Z"/></g></g></g></g></svg>