<svg id="Calque_1" data-name="Calque 1" xmlns="http://www.w3.org/2000/svg" viewBox="0 0 20.25 13.5"><defs><style>.cls-1{fill:#f79331;}</style></defs><g id="Arrow_right_orange" data-name="Arrow right orange"><path id="Icon_ionic-ios-arrow-round-forward" data-name="Icon ionic-ios-arrow-round-forward" class="cls-1" d="M12.92.25a.92.92,0,0,0,0,1.3l4.27,4.28H.91a.92.92,0,0,0,0,1.83H17.18L12.9,11.94a.93.93,0,0,0,0,1.3.91.91,0,0,0,1.29,0h0L20,7.4h0a1.32,1.32,0,0,0,.19-.29.84.84,0,0,0,.07-.35A.9.9,0,0,0,20,6.12L14.2.28a.91.91,0,0,0-1.28,0Z"/></g></svg>