<svg id="Calque_1" data-name="Calque 1" xmlns="http://www.w3.org/2000/svg" viewBox="0 0 11.27 10.82"><defs><style>.cls-1{fill:gray;}</style></defs><path id="Tracé_472" data-name="Tracé 472" class="cls-1" d="M10,7.86l1.25,1.2a5.26,5.26,0,0,1-4.16,1.75A5.38,5.38,0,0,1,1.71,7H0v-1H1.52a4.18,4.18,0,0,1,0-.51,4.18,4.18,0,0,1,0-.51H0V3.85H1.71A5.38,5.38,0,0,1,7.11,0a5.26,5.26,0,0,1,4.16,1.75L10,3a3.65,3.65,0,0,0-2.8-1.23A3.62,3.62,0,0,0,3.76,3.85H8.07V4.9H3.48a4.35,4.35,0,0,0,0,1H8.07V7H3.76A3.83,3.83,0,0,0,8.89,8.7,3.78,3.78,0,0,0,10,7.85Z"/></svg>