<svg id="Calque_1" data-name="Calque 1" xmlns="http://www.w3.org/2000/svg" viewBox="0 0 160 105"><defs><style>.cls-1{fill:none;}.cls-2{fill:#f79331;}.cls-3{fill:#fff;}.cls-4{fill:#d8d8da;}.cls-5{fill:#707070;}.cls-6{fill:#242c3c;}.cls-7{fill:#2b3a49;}.cls-8{fill:#e4e4e4;}.cls-9{fill:#d4d4d4;}.cls-10{fill:#ebebec;}.cls-11{fill:#d3d3d3;}.cls-12{fill:#8aa6d5;}.cls-13{fill:#f3f3f4;}.cls-14{fill:#bababa;}.cls-15{fill:#d8d8d8;}.cls-16{fill:#9cc49d;}.cls-17{fill:#b7d9b7;}</style></defs><g id="Icon_supplies" data-name="Icon supplies"><rect id="Rectangle_436" data-name="Rectangle 436" class="cls-1" width="160" height="105"/><g id="Groupe_817" data-name="Groupe 817"><g id="Groupe_266" data-name="Groupe 266"><g id="Groupe_156" data-name="Groupe 156"><g id="Groupe_107" data-name="Groupe 107"><g id="Groupe_106" data-name="Groupe 106"><circle id="Ellipse_52" data-name="Ellipse 52" class="cls-2" cx="92.03" cy="76.84" r="6.44"/></g></g><g id="Groupe_112" data-name="Groupe 112"><g id="Groupe_109" data-name="Groupe 109"><g id="Groupe_108" data-name="Groupe 108"><path id="Tracé_210" data-name="Tracé 210" class="cls-3" d="M126.22,35.29l-35.78,37L92,73.8l35-36.24Z"/></g></g><g id="Groupe_111" data-name="Groupe 111"><g id="Groupe_110" data-name="Groupe 110"><path id="Tracé_211" data-name="Tracé 211" class="cls-4" d="M129.41,44.34,127,37.56,92,73.8l4.63,4.48Z"/></g></g></g><g id="Groupe_146" data-name="Groupe 146"><g id="Groupe_115" data-name="Groupe 115"><g id="Groupe_114" data-name="Groupe 114"><g id="Groupe_113" data-name="Groupe 113"><rect id="Rectangle_119" data-name="Rectangle 119" class="cls-3" x="100.91" y="65.49" width="0.22" height="7.19" transform="translate(-17.21 37.49) rotate(-19.41)"/></g></g></g><g id="Groupe_118" data-name="Groupe 118"><g id="Groupe_117" data-name="Groupe 117"><g id="Groupe_116" data-name="Groupe 116"><rect id="Rectangle_120" data-name="Rectangle 120" class="cls-3" x="103.33" y="62.98" width="0.22" height="7.19" transform="translate(-16.25 38.15) rotate(-19.41)"/></g></g></g><g id="Groupe_121" data-name="Groupe 121"><g id="Groupe_120" data-name="Groupe 120"><g id="Groupe_119" data-name="Groupe 119"><rect id="Rectangle_121" data-name="Rectangle 121" class="cls-3" x="105.75" y="60.48" width="0.22" height="7.19" transform="translate(-15.28 38.81) rotate(-19.41)"/></g></g></g><g id="Groupe_124" data-name="Groupe 124"><g id="Groupe_123" data-name="Groupe 123"><g id="Groupe_122" data-name="Groupe 122"><rect id="Rectangle_122" data-name="Rectangle 122" class="cls-3" x="108.17" y="57.97" width="0.22" height="7.19" transform="translate(-14.31 39.47) rotate(-19.41)"/></g></g></g><g id="Groupe_127" data-name="Groupe 127"><g id="Groupe_126" data-name="Groupe 126"><g id="Groupe_125" data-name="Groupe 125"><rect id="Rectangle_123" data-name="Rectangle 123" class="cls-3" x="110.59" y="55.47" width="0.22" height="7.19" transform="translate(-13.34 40.14) rotate(-19.41)"/></g></g></g><g id="Groupe_130" data-name="Groupe 130"><g id="Groupe_129" data-name="Groupe 129"><g id="Groupe_128" data-name="Groupe 128"><rect id="Rectangle_124" data-name="Rectangle 124" class="cls-3" x="113.02" y="52.96" width="0.22" height="7.19" transform="translate(-12.37 40.8) rotate(-19.41)"/></g></g></g><g id="Groupe_133" data-name="Groupe 133"><g id="Groupe_132" data-name="Groupe 132"><g id="Groupe_131" data-name="Groupe 131"><rect id="Rectangle_125" data-name="Rectangle 125" class="cls-3" x="115.44" y="50.46" width="0.22" height="7.19" transform="translate(-11.4 41.46) rotate(-19.41)"/></g></g></g><g id="Groupe_136" data-name="Groupe 136"><g id="Groupe_135" data-name="Groupe 135"><g id="Groupe_134" data-name="Groupe 134"><rect id="Rectangle_126" data-name="Rectangle 126" class="cls-3" x="117.86" y="47.95" width="0.22" height="7.19" transform="translate(-10.43 42.12) rotate(-19.41)"/></g></g></g><g id="Groupe_139" data-name="Groupe 139"><g id="Groupe_138" data-name="Groupe 138"><g id="Groupe_137" data-name="Groupe 137"><rect id="Rectangle_127" data-name="Rectangle 127" class="cls-3" x="120.28" y="45.45" width="0.22" height="7.19" transform="translate(-9.46 42.79) rotate(-19.41)"/></g></g></g><g id="Groupe_142" data-name="Groupe 142"><g id="Groupe_141" data-name="Groupe 141"><g id="Groupe_140" data-name="Groupe 140"><rect id="Rectangle_128" data-name="Rectangle 128" class="cls-3" x="122.7" y="42.94" width="0.22" height="7.19" transform="translate(-8.49 43.45) rotate(-19.41)"/></g></g></g><g id="Groupe_145" data-name="Groupe 145"><g id="Groupe_144" data-name="Groupe 144"><g id="Groupe_143" data-name="Groupe 143"><rect id="Rectangle_129" data-name="Rectangle 129" class="cls-3" x="125.12" y="40.44" width="0.22" height="7.19" transform="translate(-7.52 44.11) rotate(-19.41)"/></g></g></g></g><g id="Groupe_151" data-name="Groupe 151"><g id="Groupe_148" data-name="Groupe 148"><g id="Groupe_147" data-name="Groupe 147"><path id="Tracé_212" data-name="Tracé 212" class="cls-5" d="M87.4,72.37l3.09,3,30.56-31.62-4.57-1.44Z"/></g></g><g id="Groupe_150" data-name="Groupe 150"><g id="Groupe_149" data-name="Groupe 149"><path id="Tracé_213" data-name="Tracé 213" class="cls-5" d="M124.14,46.71,93.58,78.33l3.08,3,29.07-30.08Z"/></g></g></g><g id="Groupe_153" data-name="Groupe 153"><g id="Groupe_152" data-name="Groupe 152"><rect id="Rectangle_130" data-name="Rectangle 130" class="cls-6" x="95.2" y="65.91" width="8.58" height="6.43" transform="translate(-19.36 92.61) rotate(-45.97)"/></g></g><g id="Groupe_155" data-name="Groupe 155"><g id="Groupe_154" data-name="Groupe 154"><rect id="Rectangle_131" data-name="Rectangle 131" class="cls-7" x="96.34" y="68.61" width="1.07" height="6.43" transform="translate(-22.1 91.56) rotate(-45.97)"/></g></g></g></g><path id="Icon_open-list" data-name="Icon open-list" class="cls-8" d="M44.89,53.52A1.87,1.87,0,0,0,43,55.37v0a1.87,1.87,0,0,0,1.85,1.89h0a1.87,1.87,0,0,0,1.89-1.85v0a1.87,1.87,0,0,0-1.85-1.89Zm5.67,0V57.3H68.44l2.32-3.78Zm-5.67,7.56A1.89,1.89,0,1,0,46.78,63,1.89,1.89,0,0,0,44.89,61.08Zm5.67,0v3.78H69.7l-1.26-3.31v-.47Zm-5.67,7.55a1.89,1.89,0,1,0,1.89,1.89,1.89,1.89,0,0,0-1.89-1.89Zm5.67,0v3.78H73.23V68.63Zm-5.67,7.56a1.89,1.89,0,1,0,1.89,1.89A1.89,1.89,0,0,0,44.89,76.19Zm5.67,0V80H73.23V76.19Z"/><g id="Paint_can" data-name="Paint can"><path id="Tracé_407" data-name="Tracé 407" class="cls-9" d="M54.48,90.33H30.78a1.19,1.19,0,1,0,0,2.38H54.48a1.19,1.19,0,0,0,0-2.38Z"/><path id="Tracé_408" data-name="Tracé 408" class="cls-9" d="M57.38,62.53C54.51,56,48.86,52,42.63,52S30.74,56,27.88,62.53A10.3,10.3,0,0,0,27,66.7v6.09a1.78,1.78,0,0,0,1.78,1.78h0a1.1,1.1,0,0,1,0-.18v-.75a1.1,1.1,0,0,1,0-.18h0a.67.67,0,0,1-.67-.67V66.7A9.28,9.28,0,0,1,28.89,63c2.69-6.08,8-9.86,13.74-9.86s11,3.78,13.73,9.86a9.11,9.11,0,0,1,.78,3.71v6.09a.67.67,0,0,1-.67.67h0a1,1,0,0,1,0,.17v.76a1.1,1.1,0,0,1,0,.18h0a1.78,1.78,0,0,0,1.78-1.79V66.7A10.13,10.13,0,0,0,57.38,62.53Z"/><path id="Tracé_409" data-name="Tracé 409" class="cls-10" d="M56.45,73.45a1,1,0,0,0-.94-.78H54.27v2.68h1.24a1,1,0,0,0,.94-.79,1,1,0,0,0,0-.17v-.76A1.1,1.1,0,0,0,56.45,73.45Z"/><path id="Tracé_410" data-name="Tracé 410" class="cls-10" d="M29.75,72.67a.93.93,0,0,0-1,1v.76a1.09,1.09,0,0,0,0,.18,1,1,0,0,0,.95.79H31V72.67Z"/><path id="Tracé_411" data-name="Tracé 411" class="cls-11" d="M33.74,67h-3a1.2,1.2,0,0,0-1.2,1.18,1.19,1.19,0,0,0,1.19,1.19h3Z"/><path id="Tracé_412" data-name="Tracé 412" class="cls-9" d="M54.48,67H47.33v2.37h7.15a1.18,1.18,0,0,0,1.19-1.18A1.19,1.19,0,0,0,54.49,67Z"/><path id="Tracé_413" data-name="Tracé 413" class="cls-12" d="M33.74,67v8a1.7,1.7,0,0,0,1.7,1.7h0a1.7,1.7,0,0,1,1.7,1.7h0v2.89a1.7,1.7,0,0,0,3.4,0V76.62a1.7,1.7,0,1,1,3.4,0v.13a1.7,1.7,0,0,0,1.7,1.7h0a1.7,1.7,0,0,0,1.7-1.7h0V67Z"/><path id="Tracé_414" data-name="Tracé 414" class="cls-13" d="M51.64,69.33H47.32v7.42a1.7,1.7,0,0,1-1.7,1.7h0a1.71,1.71,0,0,1-1.7-1.7h0v-.13a1.7,1.7,0,1,0-3.4,0v4.61a1.7,1.7,0,1,1-3.4,0V78.34a1.7,1.7,0,0,0-1.7-1.7h0a1.7,1.7,0,0,1-1.7-1.7h0V69.32H31v21H48A19.41,19.41,0,0,0,51.65,79Z"/><path id="Tracé_415" data-name="Tracé 415" class="cls-10" d="M54.27,69.33H51.64V79A19.33,19.33,0,0,1,48,90.33h6.3Z"/></g><g id="Hand_pruners" data-name="Hand pruners"><path id="Tracé_457" data-name="Tracé 457" class="cls-14" d="M94.81,39.84a3.46,3.46,0,0,1-1.31.93,11.79,11.79,0,0,0,13.66-2.71.51.51,0,0,0,0-.72.49.49,0,0,0-.51-.13c-4,1.22-6.88,1-8.84.4-.39.27-.79.53-1.2.76A6.13,6.13,0,0,0,94.81,39.84Z"/><path id="Tracé_458" data-name="Tracé 458" class="cls-15" d="M89.88,42.48a11.1,11.1,0,0,1,3.29-1.58,3.16,3.16,0,0,0,.33-.13,3.46,3.46,0,0,0,1.31-.93,6.13,6.13,0,0,1,1.81-1.47,11.41,11.41,0,0,0,1.19-.76c4.77-3.42,5-8.71,4.78-11a.5.5,0,0,0-.53-.46.49.49,0,0,0-.36.17A43.09,43.09,0,0,1,92.77,34a6.94,6.94,0,0,1-1.59.79,3.21,3.21,0,0,0-1.41,1v0A3.15,3.15,0,0,0,89,37.41a3.06,3.06,0,0,1-.21.73l0,0a8.57,8.57,0,0,1-2.24,3.63,1.16,1.16,0,0,1,.48.4l1,1.14a1.25,1.25,0,0,1,.18.45C88.66,43.4,89.25,43,89.88,42.48Z"/><circle id="Ellipse_90" data-name="Ellipse 90" class="cls-13" cx="92.26" cy="37.89" r="0.98"/><path id="Tracé_459" data-name="Tracé 459" class="cls-14" d="M89.29,36.46a3.39,3.39,0,0,1,.46-.72c-1.07-.41-2.36-.86-3.66-1.22a1.2,1.2,0,0,1-.07.62l-.41,1.43a1.39,1.39,0,0,1-.25.38c.9.28,2.18.7,3.43,1.19.1-.33.19-.66.27-1A3.41,3.41,0,0,1,89.29,36.46Z"/><path id="Tracé_460" data-name="Tracé 460" class="cls-15" d="M80,46.61a.19.19,0,0,1,0-.26l1-1.41a.75.75,0,0,0-.2-1,.77.77,0,0,0-.69-.09l-2,.74s-.1,0-.13,0a.1.1,0,0,1,0-.13l1.7-1.32A.75.75,0,0,0,79.76,42a.78.78,0,0,0-.62-.29L77,41.79a.13.13,0,0,1-.12-.11.11.11,0,0,1,.07-.1l2-.73a.76.76,0,0,0,.44-1,.79.79,0,0,0-.5-.46l-2.06-.59a.11.11,0,0,1-.07-.14.16.16,0,0,1,.09-.07L79,38.56a.77.77,0,0,0,.74-.77.8.8,0,0,0-.34-.62l-1.45-1A.2.2,0,0,1,77.9,36l.06-.15v0l-.63-.13,0,.12a.85.85,0,0,0,.33,1l1.45,1a.1.1,0,0,1,0,.15.14.14,0,0,1-.08,0L76.87,38a.75.75,0,0,0-.19,1.47l2.07.59a.1.1,0,0,1,.07.13.09.09,0,0,1-.06.07l-2,.73a.75.75,0,0,0-.46,1,.77.77,0,0,0,.74.5l2.14-.08a.11.11,0,0,1,.11.07.09.09,0,0,1,0,.12l-1.69,1.31a.76.76,0,0,0,.72,1.31l2-.74a.1.1,0,0,1,.13.06.09.09,0,0,1,0,.1l-1,1.41a.84.84,0,0,0,.11,1.09h0l.46-.43Z"/><path id="Tracé_461" data-name="Tracé 461" class="cls-16" d="M74.5,62.12a1.82,1.82,0,0,0,1.43-1.52,14.83,14.83,0,0,1,4.2-8.32,98.4,98.4,0,0,1,7.66-7.35,1.19,1.19,0,0,0,.4-.86,1.33,1.33,0,0,0,0-.28,1.14,1.14,0,0,0-.18-.44l-1-1.14a1.1,1.1,0,0,0-.48-.4,1.19,1.19,0,0,0-.46-.1,1.13,1.13,0,0,0-.8.27C83.83,43.19,82,44.81,80,46.66l-.46.43c-1.12,1.09-2.27,2.25-3.39,3.45A17.07,17.07,0,0,0,73,55.37,26.45,26.45,0,0,0,74.5,62.12Z"/><path id="Tracé_462" data-name="Tracé 462" class="cls-17" d="M73.06,62h0a2.19,2.19,0,0,0,1.43.09A26.45,26.45,0,0,1,73,55.37a11.65,11.65,0,0,0-1,5A1.86,1.86,0,0,0,73.06,62Z"/><path id="Tracé_463" data-name="Tracé 463" class="cls-16" d="M86,35.14a1.17,1.17,0,0,0,.07-.61,1.28,1.28,0,0,0-.17-.46,1.19,1.19,0,0,0-.67-.51,105.62,105.62,0,0,0-12.17-2.79,16.55,16.55,0,0,0-6.83.23,23.49,23.49,0,0,0-3,5.23,1.69,1.69,0,0,0,1.34-.08A14.74,14.74,0,0,1,73.82,35c1.19.18,2.37.4,3.51.64l.63.13c2.28.48,4.42,1,6.23,1.51a1.2,1.2,0,0,0,.94-.15,1.3,1.3,0,0,0,.23-.18,1.62,1.62,0,0,0,.25-.39Z"/><path id="Tracé_464" data-name="Tracé 464" class="cls-17" d="M66.25,31a11.07,11.07,0,0,0-3.71,1.7,1.86,1.86,0,0,0-.75,1.85h0a2.21,2.21,0,0,0,1.44,1.66A23.65,23.65,0,0,1,66.25,31Z"/></g></g></g></svg>