<?xml version="1.0" encoding="iso-8859-1"?>
<!-- Generator: Adobe Illustrator 19.0.0, SVG Export Plug-In . SVG Version: 6.00 Build 0)  -->
<svg version="1.1" id="Capa_1" xmlns="http://www.w3.org/2000/svg" xmlns:xlink="http://www.w3.org/1999/xlink" x="0px" y="0px"
	 viewBox="0 0 512 512" style="enable-background:new 0 0 512 512;" xml:space="preserve">
<g>
	<g>
		<path d="M139.325,119.114L96.903,76.692c-5.859-5.859-15.352-5.859-21.211,0s-5.859,15.352,0,21.211l42.422,42.422
			c5.86,5.86,15.352,5.86,21.211,0C145.184,134.466,145.184,124.973,139.325,119.114z"/>
	</g>
</g>
<g>
	<g>
		<path d="M76,242H15c-8.291,0-15,6.709-15,15s6.709,15,15,15h61c8.291,0,15-6.709,15-15C91,248.709,84.291,242,76,242z"/>
	</g>
</g>
<g>
	<g>
		<path d="M497,242h-61c-8.291,0-15,6.709-15,15s6.709,15,15,15h61c8.291,0,15-6.709,15-15C512,248.709,505.291,242,497,242z"/>
	</g>
</g>
<g>
	<g>
		<path d="M436.308,76.692c-5.859-5.859-15.352-5.859-21.211,0l-42.422,42.422c-5.859,5.859-5.859,15.352,0,21.211
			c5.859,5.859,15.352,5.859,21.211,0l42.422-42.422C442.167,92.044,442.167,82.552,436.308,76.692z"/>
	</g>
</g>
<g>
	<g>
		<path d="M256,0c-8.291,0-15,6.709-15,15v62c0,8.291,6.709,15,15,15s15-6.709,15-15V15C271,6.709,264.291,0,256,0z"/>
	</g>
</g>
<g>
	<g>
		<path d="M340,151.099c-32.699-25.8-75-35.099-116.4-25.199c-48,11.1-86.699,49.199-98.4,96.9
			c-11.7,47.999,1.8,96.599,36.299,130.499C173.8,365.6,181,383.899,181,403.7v3.3c0,8.399,6.599,15,15,15h45v-92.1
			c-25.8-6.601-45-30-45-57.9c0-8.401,6.599-15,15-15s15,6.599,15,15c0,16.5,13.5,30,30,30s30-13.5,30-30c0-8.401,6.599-15,15-15
			s15,6.599,15,15c0,27.9-19.2,51.299-45,57.9V422h45c8.401,0,15-6.601,15-15v-3.3c0-19.501,7.5-38.401,20.7-51.301
			C376.901,326.899,391,293,391,257C391,215.6,372.4,176.899,340,151.099z"/>
	</g>
</g>
<g>
	<g>
		<path d="M196,452v15c0,24.814,20.186,45,45,45h30c24.814,0,45-20.186,45-45v-15H196z"/>
	</g>
</g>
<g>
</g>
<g>
</g>
<g>
</g>
<g>
</g>
<g>
</g>
<g>
</g>
<g>
</g>
<g>
</g>
<g>
</g>
<g>
</g>
<g>
</g>
<g>
</g>
<g>
</g>
<g>
</g>
<g>
</g>
</svg>
