<svg id="Calque_1" data-name="Calque 1" xmlns="http://www.w3.org/2000/svg" viewBox="0 0 10.13 11.06"><defs><style>.cls-1{fill:gray;}</style></defs><path id="Tracé_445" data-name="Tracé 445" class="cls-1" d="M9.85.76a.18.18,0,0,0-.25,0,.12.12,0,0,0,0,.05l-.46.92a.65.65,0,0,1-.56.36h0a.79.79,0,0,1-.67-.34.67.67,0,0,1-.05-.66L8.22.26A.18.18,0,0,0,8.14,0,.2.2,0,0,0,8,0,1.78,1.78,0,0,0,6.67,1a1.39,1.39,0,0,0-.18.69A2.05,2.05,0,0,1,6,3.08L2.16,7.51a1.48,1.48,0,0,1-.87.5,1.53,1.53,0,0,0,.48,3,1.55,1.55,0,0,0,1.3-1.47,1.41,1.41,0,0,1,.34-.92l4-4.6a1.94,1.94,0,0,1,1.35-.69,1.22,1.22,0,0,0,1.07-.75C10.27,1.74,10.18,1.15,9.85.76Zm-7.6,9a.2.2,0,0,0-.07.16.21.21,0,0,1-.18.22.2.2,0,0,0-.16.09.22.22,0,0,1-.28.07.19.19,0,0,0-.18,0,.2.2,0,0,1-.26-.11A.21.21,0,0,0,1,10a.21.21,0,0,1-.15-.25.18.18,0,0,0,0-.17.21.21,0,0,1,0-.29.21.21,0,0,0,.08-.17.2.2,0,0,1,.18-.21.22.22,0,0,0,.16-.09.2.2,0,0,1,.28-.06.19.19,0,0,0,.18,0A.2.2,0,0,1,2,8.91.22.22,0,0,0,2.09,9a.21.21,0,0,1,.15.25.2.2,0,0,0,0,.18A.21.21,0,0,1,2.25,9.73Z"/></svg>