<svg id="Calque_1" data-name="Calque 1" xmlns="http://www.w3.org/2000/svg" viewBox="0 0 282.59 80.62"><defs><style>.cls-1{fill:#575757;}</style></defs><g id="Groupe_1600" data-name="Groupe 1600"><g id="Groupe_5" data-name="Groupe 5"><path id="Tracé_36" data-name="Tracé 36" class="cls-1" d="M56,.19V42.27H51.84V6.76L44.72,16,37.63,6.76V42.27H33.41V.19h4.22l7.09,8.94L51.84.19Z"/><path id="Tracé_37" data-name="Tracé 37" class="cls-1" d="M78.41,8.08a17,17,0,0,1,8.72,2.34,17.8,17.8,0,0,1,6.35,6.32,17.52,17.52,0,0,1,0,17.39,17.78,17.78,0,0,1-6.35,6.31,17.37,17.37,0,0,1-21-27.26,16.65,16.65,0,0,1,3.62-2.79A17.21,17.21,0,0,1,78.41,8.08Zm0,4.19a12.85,12.85,0,0,0-9.28,3.85,12.9,12.9,0,0,0-3.85,9.31A12.56,12.56,0,0,0,67.06,32a12.9,12.9,0,0,0,4.78,4.78A12.52,12.52,0,0,0,78.4,38.6a13.17,13.17,0,0,0,0-26.33Z"/><path id="Tracé_38" data-name="Tracé 38" class="cls-1" d="M117.46,8.6V42.26h-4.22V23.33l-8.42-8.94V42.25h-4.19V8.6h4.19l8.42,8.93V8.6Z"/><path id="Tracé_39" data-name="Tracé 39" class="cls-1" d="M17.36,42.05c-.87.35-1.39.55-1.58.61s-.7.28-1.42.59c-.16.06-.56.26-1.2.58a18.4,18.4,0,0,0-3.71,2.79,17.13,17.13,0,0,0-2.79,3.56,17.43,17.43,0,0,0,0,17.73,18.06,18.06,0,0,0,6.47,6.35c1.37.64,2.77,1.22,4.19,1.72v4.34A21.24,21.24,0,0,1,13.16,79,21.71,21.71,0,0,1,0,59a21.15,21.15,0,0,1,1.69-8.34,21.48,21.48,0,0,1,4.67-7,21.15,21.15,0,0,1,6.81-4.59,24.88,24.88,0,0,1,4.19-1.33Z"/><path id="Tracé_40" data-name="Tracé 40" class="cls-1" d="M35,45.9a17,17,0,0,1,8.72,2.34,17.8,17.8,0,0,1,6.35,6.32,17.52,17.52,0,0,1,0,17.39,17.78,17.78,0,0,1-6.35,6.31A17.35,17.35,0,0,1,20,54.56,17.72,17.72,0,0,1,22.71,51a16.65,16.65,0,0,1,3.62-2.79A17.21,17.21,0,0,1,35,45.9Zm0,4.19a12.85,12.85,0,0,0-9.28,3.85,12.94,12.94,0,0,0-3.85,9.31,12.56,12.56,0,0,0,1.78,6.6,13.2,13.2,0,0,0,4.78,4.78A12.55,12.55,0,0,0,35,76.41a13.16,13.16,0,1,0,0-26.32Z"/><path id="Tracé_41" data-name="Tracé 41" class="cls-1" d="M74.26,71.67v8.41h-4.2V71.67H61.65v8.41H57.42V71.67H55.33v-4h2.09V56.53c0-1.11,0-2,.1-2.8a8.85,8.85,0,0,1,.24-1.92,5.71,5.71,0,0,1,.59-1.51A8.25,8.25,0,0,1,60.17,48a8.67,8.67,0,0,1,2.58-1.54,9.76,9.76,0,0,1,7.09.31,7.66,7.66,0,0,1,2.84,2.49A7.38,7.38,0,0,1,73.94,52a20.59,20.59,0,0,1,.31,4.22v11.5h2.13v4Zm-12.61-4h8.41V54.5A5.29,5.29,0,0,0,69,51.05a3.74,3.74,0,0,0-2.93-1.27,4.17,4.17,0,0,0-3.21,1.3,4.81,4.81,0,0,0-1.2,3.42Z"/><path id="Tracé_42" data-name="Tracé 42" class="cls-1" d="M96.42,76.14v4.19a16.85,16.85,0,0,1-8.57-2.28,17.08,17.08,0,0,1,8.56-31.88v4.2a13,13,0,0,0-5,1,12.36,12.36,0,0,0-4.16,2.8,12.87,12.87,0,0,0-2.77,14,12.94,12.94,0,0,0,7,7A12.76,12.76,0,0,0,96.42,76.14Z"/><path id="Tracé_43" data-name="Tracé 43" class="cls-1" d="M117.47,71.67v8.41h-4.22V71.67h-8.2v8.41h-4.23V71.67H98.73v-4h2.09V46.43h4.23V67.72h8.2V46.43h4.22V67.72h2.1v4Z"/></g><g id="Groupe_2" data-name="Groupe 2"><path id="Tracé_44" data-name="Tracé 44" class="cls-1" d="M126,0h6.78a21.13,21.13,0,0,1,9.73,2.09,15.63,15.63,0,0,1,6.35,5.71,15.34,15.34,0,0,1,.23,15.39A32.46,32.46,0,0,1,157,33.7a30.81,30.81,0,0,1,2.89,13.15,30.35,30.35,0,0,1-3.29,13.86,33.45,33.45,0,0,1-9.1,11.16,35.25,35.25,0,0,1-13.16,6.41,34.75,34.75,0,0,1-8.37,1Zm8.37,7.4V24.15a8.86,8.86,0,0,0,6.32-2.42,7.86,7.86,0,0,0,2.56-6,7.94,7.94,0,0,0-2.56-5.95,8.86,8.86,0,0,0-6.32-2.42Zm8.74,21.47a22.38,22.38,0,0,1-8.74,2.65V70.17a25.75,25.75,0,0,0,6.82-3.45,27,27,0,0,0,5.58-5.42,23.17,23.17,0,0,0,4.78-14.24,23.54,23.54,0,0,0-2.13-9.63,26.34,26.34,0,0,0-6.31-8.55Z"/><path id="Tracé_45" data-name="Tracé 45" class="cls-1" d="M180.62,79,169.93,67.12V79h-6.08V32.87h3.38a25.13,25.13,0,0,1,12.26,2.62,16.27,16.27,0,0,1,6.75,6.58,18,18,0,0,1,2,8.07,16.11,16.11,0,0,1-3.13,9.77,18,18,0,0,1-8.37,6.35L188.63,79h-8Zm-10.69-40.7V62.07a12.54,12.54,0,0,0,8.67-3.6,11.15,11.15,0,0,0,3.52-8.31,11.49,11.49,0,0,0-1.59-5.88A12.58,12.58,0,0,0,176.11,40a13.2,13.2,0,0,0-6.18-1.75Z"/><path id="Tracé_46" data-name="Tracé 46" class="cls-1" d="M200.82,32.87V79h-6.08V32.87Z"/><path id="Tracé_47" data-name="Tracé 47" class="cls-1" d="M232.65,73.56v5.75a25.42,25.42,0,0,1-12.42-3.12,24,24,0,0,1-9-8.54,22.3,22.3,0,0,1,0-23.52,23.58,23.58,0,0,1,9-8.47,25.43,25.43,0,0,1,12.42-3.13v5.75a20.23,20.23,0,0,0-7.21,1.36,18.39,18.39,0,0,0-6,3.86,17.07,17.07,0,0,0-4,5.71,16.53,16.53,0,0,0,0,13.46,19,19,0,0,0,4.05,5.75,19.55,19.55,0,0,0,6.08,3.85A20.53,20.53,0,0,0,232.65,73.56Z"/><path id="Tracé_48" data-name="Tracé 48" class="cls-1" d="M281.13,47.88a22.78,22.78,0,0,1-1.9,19.94,25.67,25.67,0,0,1-9.2,8.67,26,26,0,0,1-12.66,3.22,25.47,25.47,0,0,1-12.62-3.22,23.74,23.74,0,0,1-9.17-8.67,22.56,22.56,0,0,1,0-23.79,24.67,24.67,0,0,1,3.93-4.88,24.09,24.09,0,0,1,5.25-3.82,25.87,25.87,0,0,1,12.62-3.16A25.59,25.59,0,0,1,270,35.39a24.73,24.73,0,0,1,9.2,8.68,22.66,22.66,0,0,1,1.9,3.82m-6.14,1a18,18,0,0,0-4.06-5.78,19.72,19.72,0,0,0-6.11-3.86,20.26,20.26,0,0,0-14.68,0A19.3,19.3,0,0,0,244,43.18,18,18,0,0,0,239.81,49a17.14,17.14,0,0,0-1.43,6.91,16.54,16.54,0,0,0,2.59,9,18.3,18.3,0,0,0,6.95,6.55,19.14,19.14,0,0,0,9.53,2.45,20.45,20.45,0,0,0,7.34-1.36A19.47,19.47,0,0,0,271,68.65a17.8,17.8,0,0,0,4.16-5.82,16.89,16.89,0,0,0,1.42-6.9,19.07,19.07,0,0,0-1.56-7"/></g></g></svg>