<svg id="Capa_1" enable-background="new 0 0 512 512" height="512" viewBox="0 0 512 512" width="512" xmlns="http://www.w3.org/2000/svg" xmlns:xlink="http://www.w3.org/1999/xlink"><linearGradient id="lg1"><stop offset="0" stop-color="#560dff"/><stop offset="1" stop-color="#73ecff"/></linearGradient><linearGradient id="SVGID_1_" gradientUnits="userSpaceOnUse" x1="74.98" x2="437.019" xlink:href="#lg1" y1="437.019" y2="74.98"/><radialGradient id="SVGID_2_" cx="314.14" cy="195.831" gradientUnits="userSpaceOnUse" r="340.946"><stop offset="0" stop-color="#6b23ea"/><stop offset=".2165" stop-color="#5e53e2" stop-opacity=".784"/><stop offset=".4761" stop-color="#5086d9" stop-opacity=".524"/><stop offset=".7027" stop-color="#46acd2" stop-opacity=".297"/><stop offset=".885" stop-color="#3fc3ce" stop-opacity=".115"/><stop offset="1" stop-color="#3dcbcd" stop-opacity="0"/></radialGradient><linearGradient id="lg2"><stop offset="0" stop-color="#3ca1ff"/><stop offset=".1082" stop-color="#47affa"/><stop offset=".5685" stop-color="#74e9e7"/><stop offset=".79" stop-color="#85ffe0"/><stop offset=".881" stop-color="#9dffe6"/><stop offset="1" stop-color="#c2fff0"/></linearGradient><linearGradient id="SVGID_3_" gradientTransform="matrix(.707 .707 -.707 .707 -1681.319 -384.937)" gradientUnits="userSpaceOnUse" x1="1823.102" x2="1823.102" xlink:href="#lg2" y1="-680.196" y2="-1289.789"/><linearGradient id="SVGID_4_" gradientTransform="matrix(.707 .707 -.707 .707 -1681.319 -384.937)" gradientUnits="userSpaceOnUse" x1="1822.997" x2="1822.997" xlink:href="#lg2" y1="-620.471" y2="-1240.309"/><linearGradient id="lg3"><stop offset="0" stop-color="#85ffe0"/><stop offset=".2339" stop-color="#9dffe6"/><stop offset=".7251" stop-color="#dafff6"/><stop offset="1" stop-color="#fff"/></linearGradient><linearGradient id="SVGID_5_" gradientTransform="matrix(.707 .707 -.707 .707 -1174.322 839.063)" gradientUnits="userSpaceOnUse" x1="614.538" x2="614.538" xlink:href="#lg3" y1="-1258.584" y2="-1492.898"/><linearGradient id="SVGID_6_" gradientUnits="userSpaceOnUse" x1="26.597" x2="268.944" xlink:href="#lg3" y1="463.593" y2="221.246"/><linearGradient id="SVGID_7_" gradientTransform="matrix(.707 .707 -.707 .707 -1681.319 -384.937)" gradientUnits="userSpaceOnUse" x1="1823.105" x2="1823.105" xlink:href="#lg2" y1="-384.778" y2="-1369.059"/><linearGradient id="SVGID_8_" gradientTransform="matrix(.707 .707 -.707 .707 -1705.776 -443.98)" gradientUnits="userSpaceOnUse" x1="1882.145" x2="1882.145" xlink:href="#lg1" y1="-505.244" y2="-1265.025"/><radialGradient id="SVGID_9_" cx="1882.145" cy="-976.385" gradientTransform="matrix(.707 .707 -.707 .707 -1705.776 -443.98)" gradientUnits="userSpaceOnUse" r="124.989"><stop offset="0" stop-color="#63bcf5" stop-opacity="0"/><stop offset=".3021" stop-color="#63baf5" stop-opacity=".302"/><stop offset=".4611" stop-color="#64b2f4" stop-opacity=".461"/><stop offset=".5868" stop-color="#64a4f3" stop-opacity=".587"/><stop offset=".6951" stop-color="#6591f2" stop-opacity=".695"/><stop offset=".7921" stop-color="#6778f0" stop-opacity=".792"/><stop offset=".8811" stop-color="#685aee" stop-opacity=".881"/><stop offset=".9623" stop-color="#6a36eb" stop-opacity=".962"/><stop offset="1" stop-color="#6b23ea"/></radialGradient><linearGradient id="SVGID_10_" gradientTransform="matrix(.707 .707 -.707 .707 -1705.776 -443.98)" gradientUnits="userSpaceOnUse" x1="1882.145" x2="1882.145" xlink:href="#lg3" y1="-488.107" y2="-1140.052"/><linearGradient id="SVGID_11_" gradientUnits="userSpaceOnUse" x1="222.096" x2="424.643" xlink:href="#lg3" y1="290.528" y2="87.981"/><radialGradient id="SVGID_12_" cx="1926.079" cy="-870.529" gradientTransform="matrix(.707 .707 -.707 .707 -1661.842 -550.046)" gradientUnits="userSpaceOnUse" r="103.081"><stop offset="0" stop-color="#fff" stop-opacity="0"/><stop offset=".4321" stop-color="#fdffff" stop-opacity=".432"/><stop offset=".5878" stop-color="#f6fffd" stop-opacity=".588"/><stop offset=".6988" stop-color="#ebfffa" stop-opacity=".699"/><stop offset=".7885" stop-color="#dafff5" stop-opacity=".789"/><stop offset=".8653" stop-color="#c4fff0" stop-opacity=".865"/><stop offset=".9327" stop-color="#a9ffe9" stop-opacity=".933"/><stop offset=".9928" stop-color="#89ffe1" stop-opacity=".993"/><stop offset="1" stop-color="#85ffe0"/></radialGradient><g><circle cx="256" cy="256" fill="url(#SVGID_1_)" r="256"/><circle cx="256" cy="256" fill="url(#SVGID_2_)" r="256"/><path d="m121.71 346.289c-7.484 7.421-14.92 14.788-22.299 22.093-11.482 11.341-10.607 30.239 1.679 42.528 12.29 12.286 31.188 13.16 42.528 1.678 21.001-21.216 42.518-42.901 64.336-64.839-28.748-.29-57.496-.776-86.244-1.46z" fill="url(#SVGID_3_)"/><path d="m175 293.349c-17.947 17.862-35.75 35.547-53.29 52.94 24.434 24.235 62.679 25.235 86.244 1.459 3.557-3.577 7.122-7.161 10.695-10.75-14.506-14.574-29.075-29.143-43.649-43.649z" fill="url(#SVGID_4_)"/><path d="m229.386 326.213c-6.543-15.261-13.101-30.511-19.646-45.738-7.935 15.176-15.816 30.313-23.609 45.392 7.287 7.287 14.563 14.583 21.823 21.881 6.016 6.048 15.646 6.139 21.561.18 5.914-5.958 5.876-15.688-.129-21.715z" fill="url(#SVGID_5_)"/><path d="m207.759 326.07c5.923-5.94 5.871-15.658-.151-21.679.701-7.97 1.412-15.942 2.133-23.916-7.986.72-15.972 1.433-23.956 2.137-6.026-6.004-15.756-6.042-21.715-.129-5.958 5.914-5.869 15.546.18 21.561 7.299 7.259 14.595 14.536 21.882 21.823 6.037 6.038 15.703 6.144 21.627.203z" fill="url(#SVGID_6_)"/><path d="m413.689 292.925c54.65-53.546 53.578-136.415-.568-191.53-54.105-55.586-137.992-58.567-192.38-4.746-41.487 40.74-53.386 99.955-33.319 150.049-2.55 5.08-5.096 10.156-7.635 15.226-2.942 5.874-1.751 12.977 2.948 17.654 8.292 8.254 16.586 16.529 24.871 24.813 8.284 8.284 16.559 16.578 24.813 24.87 4.677 4.699 11.781 5.891 17.654 2.949 5.07-2.539 10.146-5.084 15.226-7.635 49.422 19.794 107.702 8.495 148.39-31.65z" fill="url(#SVGID_7_)"/><path d="m316.007 303.397c-59.14.211-107.616-48.265-107.405-107.405.432-59.127 48.628-108.102 106.776-107.532 58.136.765 107.393 50.022 108.159 108.16.572 58.151-48.403 106.346-107.53 106.777z" fill="url(#SVGID_8_)"/><path d="m316.007 303.397c-59.14.211-107.616-48.265-107.405-107.405.432-59.127 48.628-108.102 106.776-107.532 58.136.765 107.393 50.022 108.159 108.16.572 58.151-48.403 106.346-107.53 106.777z" fill="url(#SVGID_9_)"/><path d="m316.062 288.044c-50.792.144-92.253-41.316-92.107-92.107.286-50.782 41.504-92.575 91.568-92.124 50.056.573 92.088 42.606 92.662 92.662.452 50.066-41.339 91.285-92.123 91.569z" fill="url(#SVGID_10_)"/><path d="m331.498 257.319c-50.906.078-92.309-41.289-92.104-92.149.031-8.697 1.268-17.116 3.538-25.104-11.791 15.549-18.912 34.911-18.977 55.87-.145 50.793 41.314 92.252 92.107 92.107 42.123-.174 78.014-28.693 88.826-66.818-16.774 21.751-43.458 36.044-73.39 36.094z" fill="url(#SVGID_11_)"/><path d="m316.062 288.044c-50.792.144-92.253-41.316-92.107-92.107.286-50.782 41.504-92.575 91.568-92.124 50.056.573 92.088 42.606 92.662 92.662.452 50.066-41.339 91.285-92.123 91.569z" fill="url(#SVGID_12_)"/></g></svg>