<svg id="Calque_1" data-name="Calque 1" xmlns="http://www.w3.org/2000/svg" viewBox="0 0 42 40.17"><defs><style>.cls-1{fill:none;}.cls-2{fill:#ff7e7e;}</style></defs><g id="Icon_Kitchen" data-name="Icon Kitchen"><rect id="Rectangle_431" data-name="Rectangle 431" class="cls-1" width="42" height="40.17"/><g id="Groupe_229" data-name="Groupe 229"><g id="Groupe_228" data-name="Groupe 228"><g id="Groupe_215" data-name="Groupe 215"><path id="Tracé_227" data-name="Tracé 227" class="cls-2" d="M29.78,23.72a3,3,0,1,1,3-3A3,3,0,0,1,29.78,23.72Zm0-5.25A2.26,2.26,0,1,0,32,20.73h0a2.26,2.26,0,0,0-2.26-2.26Z"/></g><g id="Groupe_216" data-name="Groupe 216"><path id="Tracé_228" data-name="Tracé 228" class="cls-2" d="M29.78,17a3,3,0,1,1,3-3A3,3,0,0,1,29.78,17Zm0-5.25A2.26,2.26,0,1,0,32,14h0a2.26,2.26,0,0,0-2.26-2.26Z"/></g><g id="Groupe_218" data-name="Groupe 218"><g id="Groupe_217" data-name="Groupe 217"><rect id="Rectangle_143" data-name="Rectangle 143" class="cls-2" x="5" y="31.58" width="32" height="3.59"/></g></g><g id="Groupe_221" data-name="Groupe 221"><g id="Groupe_220" data-name="Groupe 220"><g id="Groupe_219" data-name="Groupe 219"><path id="Tracé_229" data-name="Tracé 229" class="cls-2" d="M34.23,5.37H15.78v4.79H24V31.58H35.61V6.73A1.38,1.38,0,0,0,34.23,5.37Zm-4.45,18a2.62,2.62,0,1,1,2.63-2.62,2.61,2.61,0,0,1-2.63,2.62Zm0-6.69A2.62,2.62,0,1,1,32.41,14a2.61,2.61,0,0,1-2.63,2.62Z"/></g></g></g><g id="Groupe_222" data-name="Groupe 222"><path id="Tracé_230" data-name="Tracé 230" class="cls-2" d="M15,17.83H9.7A.82.82,0,0,1,8.88,17V5.82A.82.82,0,0,1,9.7,5H15a.82.82,0,0,1,.82.82V17A.82.82,0,0,1,15,17.83ZM9.7,5.74a.09.09,0,0,0-.09.08V17a.09.09,0,0,0,.09.08H15a.07.07,0,0,0,.08-.08h0V5.82A.09.09,0,0,0,15,5.74Z"/></g><g id="Groupe_223" data-name="Groupe 223"><path id="Tracé_231" data-name="Tracé 231" class="cls-2" d="M13.65,20.45H11.08V17.09h2.57Zm-1.83-.73h1.09V17.83H11.82Z"/></g><g id="Groupe_224" data-name="Groupe 224"><path id="Tracé_232" data-name="Tracé 232" class="cls-2" d="M7.61,22.5l1.21,9.08h.75L8.45,23.23h7.83l-.09.64-.87,6.53-.16,1.18h.74l.16-1.15.1-.74.66-4.92.1-.74.2-1.53Z"/></g><g id="Groupe_225" data-name="Groupe 225"><path id="Tracé_233" data-name="Tracé 233" class="cls-2" d="M16,30.44h-.26l-.39,0,.87-6.53.39.07a3.28,3.28,0,0,1-.6,6.5Zm.85-5.67-.66,4.92a2.53,2.53,0,0,0,.66-4.92Z"/></g><g id="Groupe_226" data-name="Groupe 226"><path id="Tracé_234" data-name="Tracé 234" class="cls-2" d="M29.78,17a3,3,0,1,1,3-3A3,3,0,0,1,29.78,17Zm0-5.25A2.26,2.26,0,1,0,32,14h0a2.26,2.26,0,0,0-2.26-2.26Z"/></g><g id="Groupe_227" data-name="Groupe 227"><path id="Tracé_235" data-name="Tracé 235" class="cls-2" d="M29.78,23.72a3,3,0,1,1,3-3A3,3,0,0,1,29.78,23.72Zm0-5.25A2.26,2.26,0,1,0,32,20.73h0a2.26,2.26,0,0,0-2.26-2.26Z"/></g></g></g></g></svg>