<svg id="Calque_1" data-name="Calque 1" xmlns="http://www.w3.org/2000/svg" viewBox="0 0 45.66 37.55"><defs><style>.cls-1{fill:none;}.cls-2{fill:#b4d7ff;}.cls-3{fill:#fff;}.cls-4{opacity:0.28;}.cls-5{fill:#b4d7fc;}</style></defs><g id="Icon_Bathroom" data-name="Icon Bathroom"><rect id="Rectangle_433" data-name="Rectangle 433" class="cls-1" width="45.66" height="37.55"/><g id="Groupe_230" data-name="Groupe 230"><g id="Groupe_103" data-name="Groupe 103"><ellipse id="Ellipse_49" data-name="Ellipse 49" class="cls-2" cx="22.55" cy="12.48" rx="6.47" ry="7.48"/><path id="Tracé_204" data-name="Tracé 204" class="cls-3" d="M17.37,12.37s.18-5.9,5.18-5.9S17.84,7.88,17.37,12.37Z"/><ellipse id="Ellipse_50" data-name="Ellipse 50" class="cls-2" cx="22.55" cy="27.28" rx="4.47" ry="5.27"/><path id="Tracé_205" data-name="Tracé 205" class="cls-3" d="M19,27.2s.13-4.15,3.58-4.15S19.3,24,19,27.2Z"/><ellipse id="Ellipse_51" data-name="Ellipse 51" class="cls-2" cx="34.03" cy="20.29" rx="4.86" ry="5.73" transform="translate(-5.08 13.96) rotate(-21.61)"/><path id="Tracé_206" data-name="Tracé 206" class="cls-3" d="M30.38,21.65S28.84,17.4,32.33,16,29.44,18.32,30.38,21.65Z"/></g><g id="Groupe_104" data-name="Groupe 104" class="cls-4"><ellipse id="Ellipse_49-2" data-name="Ellipse 49-2" class="cls-5" cx="8.64" cy="17.1" rx="3.64" ry="4.21"/><path id="Tracé_204-2" data-name="Tracé 204-2" class="cls-3" d="M5.73,17s.1-3.31,2.91-3.31S6,14.52,5.73,17Z"/><ellipse id="Ellipse_50-2" data-name="Ellipse 50-2" class="cls-5" cx="8.64" cy="25.43" rx="2.52" ry="2.96"/><path id="Tracé_205-2" data-name="Tracé 205-2" class="cls-3" d="M6.63,25.39s.07-2.34,2-2.34S6.81,23.61,6.63,25.39Z"/><ellipse id="Ellipse_51-2" data-name="Ellipse 51-2" class="cls-5" cx="15.1" cy="21.5" rx="2.74" ry="3.22" transform="translate(-6.86 7.07) rotate(-21.61)"/><path id="Tracé_206-2" data-name="Tracé 206-2" class="cls-3" d="M13,22.26s-.86-2.39,1.1-3.17S12.52,20.39,13,22.26Z"/></g></g></g></svg>