<svg id="Calque_1" data-name="Calque 1" xmlns="http://www.w3.org/2000/svg" viewBox="0 0 40.26 44.37"><defs><style>.cls-1{fill:none;}.cls-2{fill:#344464;}</style></defs><g id="Icon_Living_Room" data-name="Icon Living Room"><rect id="Rectangle_430" data-name="Rectangle 430" class="cls-1" width="40.26" height="44.37"/><g id="Groupe_1513" data-name="Groupe 1513"><path id="Tracé_208" data-name="Tracé 208" class="cls-2" d="M13.43,31.27V17.64c6.83-.64,6.83-9.4,6.83-10.52S16.85,5,12.63,5,5,6,5,7.12,5,17,11.83,17.64V31.27c-3.56.11-6.32.86-6.32,1.67s3.22,1.43,7.19,1.43,7.19-.56,7.19-1.43S17.06,31.36,13.43,31.27ZM5.51,6.9c0-.87,3.22-1.68,7.19-1.68S19.89,6,19.89,6.9,16.67,8.33,12.7,8.33,5.51,7.77,5.51,6.9Z"/><path id="Tracé_209" data-name="Tracé 209" class="cls-2" d="M28.43,36.27V22.64c6.83-.64,6.83-9.4,6.83-10.52S31.85,10,27.63,10,20,11,20,12.12,20,22,26.83,22.64V36.27c-3.56.11-6.32.86-6.32,1.67s3.22,1.43,7.19,1.43,7.19-.56,7.19-1.43S32.06,36.36,28.43,36.27ZM20.51,11.9c0-.87,3.22-1.68,7.19-1.68s7.19.81,7.19,1.68-3.22,1.43-7.19,1.43-7.19-.56-7.19-1.43Z"/></g></g></svg>