<svg id="Calque_1" data-name="Calque 1" xmlns="http://www.w3.org/2000/svg" viewBox="0 0 31.41 35.39"><defs><style>.cls-1{fill:none;}.cls-2{fill:#f8c5ac;}.cls-3{fill:#fff;}.cls-4{fill:#f5b090;}.cls-5{fill:#f5f5f5;}</style></defs><g id="Icon_Other" data-name="Icon Other"><rect id="Rectangle_434" data-name="Rectangle 434" class="cls-1" width="31.41" height="35.39"/><g id="Groupe_205" data-name="Groupe 205"><g id="Traffic_cone" data-name="Traffic cone"><path id="Tracé_447" data-name="Tracé 447" class="cls-2" d="M15.5,5a1.32,1.32,0,0,0-1.06.91l-1.1,3.5h3.25Z"/><path id="Tracé_448" data-name="Tracé 448" class="cls-2" d="M17.66,13.76H12l-1.35,4.29h8.1Z"/><path id="Tracé_449" data-name="Tracé 449" class="cls-2" d="M19.79,22.38H9.26L8,26.46H20.8Z"/><path id="Tracé_450" data-name="Tracé 450" class="cls-3" d="M16.59,9.43H13.34L12,13.76h5.69Z"/><path id="Tracé_451" data-name="Tracé 451" class="cls-3" d="M18.72,18.05h-8.1L9.26,22.38H19.79Z"/><path id="Rectangle_211" data-name="Rectangle 211" class="cls-4" d="M7,26.46H24.44a2,2,0,0,1,2,2h0a2,2,0,0,1-2,2H7a2,2,0,0,1-2-2H5A2,2,0,0,1,7,26.46Z"/><path id="Tracé_452" data-name="Tracé 452" class="cls-4" d="M18.11,9.43,17,5.93A1.33,1.33,0,0,0,15.5,5l1.09,4.42Z"/><path id="Tracé_453" data-name="Tracé 453" class="cls-4" d="M18.72,18.05h2.09l-1.34-4.29H17.66Z"/><path id="Tracé_454" data-name="Tracé 454" class="cls-4" d="M20.8,26.46h2.65l-1.28-4.08H19.79Z"/><path id="Tracé_455" data-name="Tracé 455" class="cls-5" d="M17.66,13.76h1.81L18.11,9.43H16.59Z"/><path id="Tracé_456" data-name="Tracé 456" class="cls-5" d="M19.79,22.38h2.38l-1.36-4.33H18.72Z"/></g></g></g></svg>